<svg width="162" height="143" viewBox="0 0 162 143" fill="none" xmlns="http://www.w3.org/2000/svg">
<path d="M152.98 20.0636C152.98 22.2537 154.782 24.0059 157.034 24.0059C159.286 24.0059 161.088 22.2537 161.088 20.0636C161.088 17.8734 159.286 16.1213 157.034 16.1213C154.782 16.1213 152.98 17.8734 152.98 20.0636Z" fill="#70316E"/>
<path d="M118.9 20.0636C118.9 22.2537 120.702 24.0059 122.954 24.0059C125.206 24.0059 127.007 22.2537 127.007 20.0636C127.007 17.8734 125.206 16.1213 122.954 16.1213C120.702 16.1213 118.9 17.8734 118.9 20.0636Z" fill="#70316E"/>
<path d="M84.8203 20.0636C84.8203 22.2537 86.6219 24.0059 88.8739 24.0059C91.1259 24.0059 92.9275 22.2537 92.9275 20.0636C92.9275 17.8734 91.1259 16.1213 88.8739 16.1213C86.772 16.1213 84.8203 17.8734 84.8203 20.0636Z" fill="#70316E"/>
<path d="M50.8926 20.0636C50.8926 22.2537 52.6941 24.0059 54.9461 24.0059C57.198 24.0059 58.9996 22.2537 58.9996 20.0636C58.9996 17.8734 57.198 16.1213 54.9461 16.1213C52.6941 16.1213 50.8926 17.8734 50.8926 20.0636Z" fill="#70316E"/>
<path d="M16.8125 20.0636C16.8125 22.2537 18.6141 24.0059 20.866 24.0059C23.1179 24.0059 24.9194 22.2537 24.9194 20.0636C24.9194 17.8734 23.1179 16.1213 20.866 16.1213C18.6141 16.1213 16.8125 17.8734 16.8125 20.0636Z" fill="#70316E"/>
<path d="M152.98 49.8507C152.98 52.0408 154.782 53.793 157.034 53.793C159.286 53.793 161.088 52.0408 161.088 49.8507C161.088 47.6606 159.286 45.9084 157.034 45.9084C154.782 45.7624 152.98 47.6606 152.98 49.8507Z" fill="#70316E"/>
<path d="M118.9 49.8507C118.9 52.0408 120.702 53.793 122.954 53.793C125.206 53.793 127.007 52.0408 127.007 49.8507C127.007 47.6606 125.206 45.9084 122.954 45.9084C120.702 45.7624 118.9 47.6606 118.9 49.8507Z" fill="#70316E"/>
<path d="M84.8203 49.8507C84.8203 52.0408 86.6219 53.793 88.8739 53.793C91.1259 53.793 92.9275 52.0408 92.9275 49.8507C92.9275 47.6606 91.1259 45.9084 88.8739 45.9084C86.772 45.7624 84.8203 47.6606 84.8203 49.8507Z" fill="#70316E"/>
<path d="M50.8926 49.8507C50.8926 52.0408 52.6941 53.793 54.9461 53.793C57.198 53.793 58.9996 52.0408 58.9996 49.8507C58.9996 47.6606 57.198 45.9084 54.9461 45.9084C52.6941 45.7624 50.8926 47.6606 50.8926 49.8507Z" fill="#70316E"/>
<path d="M16.8125 49.8507C16.8125 52.0408 18.6141 53.793 20.866 53.793C23.1179 53.793 24.9194 52.0408 24.9194 49.8507C24.9194 47.6605 23.1179 45.9084 20.866 45.9084C18.6141 45.9084 16.8125 47.6605 16.8125 49.8507Z" fill="#70316E"/>
<path d="M152.98 79.4855C152.98 81.6756 154.782 83.4277 157.034 83.4277C159.286 83.4277 161.088 81.6756 161.088 79.4855C161.088 77.2953 159.286 75.5432 157.034 75.5432C154.782 75.5432 152.98 77.2953 152.98 79.4855Z" fill="#70316E"/>
<path d="M118.9 79.4855C118.9 81.6756 120.702 83.4277 122.954 83.4277C125.206 83.4277 127.007 81.6756 127.007 79.4855C127.007 77.2953 125.206 75.5432 122.954 75.5432C120.702 75.5432 118.9 77.2953 118.9 79.4855Z" fill="#70316E"/>
<path d="M84.8203 79.4855C84.8203 81.6756 86.6219 83.4277 88.8739 83.4277C91.1259 83.4277 92.9275 81.6756 92.9275 79.4855C92.9275 77.2953 91.1259 75.5432 88.8739 75.5432C86.772 75.5432 84.8203 77.2953 84.8203 79.4855Z" fill="#70316E"/>
<path d="M50.8926 79.4855C50.8926 81.6756 52.6941 83.4277 54.9461 83.4277C57.198 83.4277 58.9996 81.6756 58.9996 79.4855C58.9996 77.2953 57.198 75.5432 54.9461 75.5432C52.6941 75.5432 50.8926 77.2953 50.8926 79.4855Z" fill="#70316E"/>
<path d="M16.8125 79.4855C16.8125 81.6756 18.6141 83.4277 20.866 83.4277C23.1179 83.4277 24.9194 81.6756 24.9194 79.4855C24.9194 77.2953 23.1179 75.5432 20.866 75.5432C18.6141 75.5432 16.8125 77.2953 16.8125 79.4855Z" fill="#70316E"/>
<path d="M152.98 109.274C152.98 111.464 154.782 113.216 157.034 113.216C159.286 113.216 161.088 111.464 161.088 109.274C161.088 107.083 159.286 105.331 157.034 105.331C154.782 105.331 152.98 107.083 152.98 109.274Z" fill="#70316E"/>
<path d="M118.9 109.274C118.9 111.464 120.702 113.216 122.954 113.216C125.206 113.216 127.007 111.464 127.007 109.274C127.007 107.083 125.206 105.331 122.954 105.331C120.702 105.331 118.9 107.083 118.9 109.274Z" fill="#70316E"/>
<path d="M84.8203 109.274C84.8203 111.464 86.6219 113.216 88.8739 113.216C91.1259 113.216 92.9275 111.464 92.9275 109.274C92.9275 107.083 91.1259 105.331 88.8739 105.331C86.772 105.331 84.8203 107.083 84.8203 109.274Z" fill="#70316E"/>
<path d="M50.8926 109.274C50.8926 111.464 52.6941 113.216 54.9461 113.216C57.198 113.216 58.9996 111.464 58.9996 109.274C58.9996 107.083 57.198 105.331 54.9461 105.331C52.6941 105.331 50.8926 107.083 50.8926 109.274Z" fill="#70316E"/>
<path d="M16.8125 109.274C16.8125 111.464 18.6141 113.216 20.866 113.216C23.1179 113.216 24.9194 111.464 24.9194 109.274C24.9194 107.083 23.1179 105.331 20.866 105.331C18.6141 105.331 16.8125 107.083 16.8125 109.274Z" fill="#70316E"/>
<path d="M152.98 139.058C152.98 141.248 154.782 143 157.034 143C159.286 143 161.088 141.248 161.088 139.058C161.088 136.868 159.286 135.115 157.034 135.115C154.782 135.115 152.98 136.868 152.98 139.058Z" fill="#70316E"/>
<path d="M118.9 139.058C118.9 141.248 120.702 143 122.954 143C125.206 143 127.007 141.248 127.007 139.058C127.007 136.868 125.206 135.115 122.954 135.115C120.702 135.115 118.9 136.868 118.9 139.058Z" fill="#70316E"/>
<path d="M84.8203 139.058C84.8203 141.248 86.6219 143 88.8739 143C91.1259 143 92.9275 141.248 92.9275 139.058C92.9275 136.868 91.1259 135.115 88.8739 135.115C86.772 135.115 84.8203 136.868 84.8203 139.058Z" fill="#70316E"/>
<path d="M50.8926 139.058C50.8926 141.248 52.6941 143 54.9461 143C57.198 143 58.9996 141.248 58.9996 139.058C58.9996 136.868 57.198 135.115 54.9461 135.115C52.6941 135.115 50.8926 136.868 50.8926 139.058Z" fill="#70316E"/>
<path d="M16.8125 139.058C16.8125 141.248 18.6141 143 20.866 143C23.1179 143 24.9194 141.248 24.9194 139.058C24.9194 136.868 23.1179 135.115 20.866 135.115C18.6141 135.115 16.8125 136.868 16.8125 139.058Z" fill="#70316E"/>
<path d="M47 45L0 45L-4.37043e-07 1.14441e-05L47 1.38576e-06L47 45Z" fill="#9DB83F"/>
</svg>
