<svg width="375" height="145" viewBox="0 0 375 145" fill="none" xmlns="http://www.w3.org/2000/svg">
<g clip-path="url(#clip0_1372_437)">
<path d="M225.608 54.1207C221.674 54.2361 218.584 52.6204 216.336 50.1968C214.65 48.2349 213.245 46.1575 211.7 44.0802C210.857 43.0415 210.155 41.8874 209.171 40.9641C206.783 38.5406 203.833 38.5406 201.585 41.0795C200.18 42.4644 199.197 44.1956 198.073 45.6959C196.808 47.3116 195.825 48.9273 194.42 50.3122C189.082 55.621 180.934 55.5056 175.876 49.966C174.19 48.1194 173.066 46.0421 171.521 44.1956C170.537 42.9261 169.554 41.5412 168.29 40.5025C166.463 38.7714 163.935 38.7714 162.108 40.5025C160.844 41.6566 159.861 42.9261 158.877 44.1956C157.332 46.1575 156.208 48.1194 154.522 49.966C149.465 55.5056 141.176 55.621 135.978 50.1968C134.292 48.3503 133.028 46.2729 131.482 44.311C130.499 43.0415 129.516 41.6566 128.392 40.5025C126.425 38.656 123.756 38.5406 121.929 40.3871C120.525 41.6566 119.401 43.2723 118.277 44.7726C116.731 46.6191 115.467 48.6965 113.781 50.3122C109.145 55.0439 101.418 55.2748 96.5014 50.6584C94.8156 49.0427 93.5511 47.0808 92.0058 45.2342C90.8819 43.7339 89.8984 42.2336 88.6341 40.8487C86.2458 38.3097 83.1551 38.3097 80.9073 40.9641C79.5025 42.4644 78.5191 44.1956 77.2547 45.8113C75.8499 47.5424 74.5855 49.3889 72.8997 50.8892C68.2636 55.1594 60.9583 55.0439 56.3222 50.7738C54.4959 49.0427 53.0912 46.9654 51.5459 45.0034C50.422 43.6185 49.4385 42.1182 48.1742 40.7333C46.0669 38.5406 43.2572 38.4251 41.0094 40.6179C39.464 42.1182 38.3401 43.9647 37.0757 45.5805C35.9518 47.0808 34.828 48.6965 33.4231 50.0814C28.3656 55.2748 20.2174 55.2748 15.3004 50.0814C13.755 48.4657 12.4906 46.5037 11.0858 44.6572C9.96189 43.1569 8.97849 41.6566 7.57362 40.3871C5.46633 38.4251 2.79703 38.4252 0.830221 40.5025C-0.434154 41.772 -1.41742 43.2723 -2.54131 44.6572C-3.94617 46.5037 -5.21068 48.4657 -6.89652 50.1968C-12.0945 55.3902 -20.2427 55.3902 -25.1597 50.0814C-26.8455 48.2349 -28.1099 46.1575 -29.6552 44.1956C-30.6386 42.9261 -31.6221 41.5412 -32.8865 40.3871C-34.7128 38.656 -37.2414 38.656 -39.0677 40.3871C-40.4726 41.6566 -41.4561 43.1569 -42.7205 44.6572C-44.4063 46.7345 -45.8111 49.0427 -47.7779 50.8892C-52.5545 55.3902 -60.1407 55.1594 -64.7767 50.6584C-66.4626 49.0427 -67.7269 47.0808 -69.1318 45.2342C-69.9747 44.1956 -70.6772 43.0415 -71.5201 42.0028C-72.644 40.6179 -73.9083 39.4638 -76.0156 39.233C-76.0156 37.3865 -76.0156 35.6553 -76.0156 33.8088C-73.4869 33.6934 -71.2391 34.2704 -69.5533 35.6553C-67.5865 37.2711 -65.9006 39.1176 -64.3552 40.9641C-62.8099 42.8107 -61.686 44.888 -60.0002 46.6191C-57.6119 49.2735 -54.6617 49.2735 -52.133 46.6191C-50.7281 45.1188 -49.7448 43.5031 -48.4804 41.8874C-47.3565 40.3871 -46.2326 38.7714 -44.8278 37.3865C-39.9108 32.3085 -31.622 32.3085 -26.8455 37.3865C-25.1596 39.233 -23.8953 41.3104 -22.35 43.1569C-21.3666 44.4264 -20.3831 45.8113 -19.2592 46.9654C-17.0114 49.0427 -14.3422 49.0427 -12.2349 46.85C-10.9705 45.4651 -9.98707 43.9647 -8.86318 42.4644C-7.31784 40.6179 -6.05353 38.5406 -4.3677 36.9248C0.408832 32.4239 7.71408 32.3085 12.6311 36.8094C14.4574 38.5406 15.8623 40.6179 17.2672 42.5798C18.3911 43.9647 19.2339 45.4651 20.4983 46.7345C22.7461 49.1581 25.6963 49.1581 27.9441 46.7345C29.349 45.3496 30.3324 43.6185 31.4563 42.1182C33.0016 40.2717 34.2661 38.1943 36.0924 36.5786C41.0094 32.1931 48.4551 32.4239 53.0912 36.9248C54.9175 38.656 56.1818 40.7333 57.7271 42.6953C58.851 44.0802 59.694 45.4651 60.9584 46.7345C63.0656 48.9273 66.0158 48.9273 68.1231 46.7345C69.6685 45.1188 70.7924 43.1569 72.1972 41.4258C73.8831 39.4638 75.4285 37.2711 77.6762 35.5399C81.8908 32.4239 88.2126 32.6547 92.1462 35.8862C94.113 37.5019 95.518 39.5792 97.2038 41.5412C98.4682 43.0415 99.311 44.6572 100.575 46.0421C103.245 48.9273 106.335 48.9273 108.864 46.0421C110.409 44.311 111.533 42.4644 112.938 40.6179C114.203 39.0022 115.467 37.3865 117.153 36.0016C121.367 32.4239 127.97 32.3085 132.325 35.7708C134.292 37.3865 135.837 39.4638 137.383 41.4258C138.647 42.9261 139.631 44.6572 140.895 46.1575C143.424 48.9273 146.374 48.9273 148.903 46.2729C150.027 45.1188 150.869 43.8493 151.712 42.5798C153.117 40.7333 154.382 38.7714 156.067 37.0403C160.984 31.9623 169.133 31.9623 174.05 37.0403C175.876 39.0022 177.281 41.1949 178.967 43.2723C179.95 44.4264 180.793 45.6959 181.917 46.85C183.884 48.6965 186.553 48.6965 188.52 46.85C189.925 45.4651 191.049 43.7339 192.313 42.1182C193.718 40.2717 194.982 38.3097 196.808 36.694C201.444 32.1931 208.75 32.0777 213.526 36.3478C215.212 37.8481 216.476 39.6946 217.881 41.5412C219.005 43.0415 219.989 44.5418 221.113 45.9267C222.096 47.1962 223.501 48.1194 225.327 48.2349C225.608 50.4276 225.608 52.2741 225.608 54.1207Z" fill="#70316E"/>
<path d="M275.307 101.295C271.374 101.41 268.283 99.7942 266.035 97.3706C264.349 95.4087 262.945 93.3313 261.399 91.254C260.556 90.2153 259.854 89.0612 258.87 88.138C256.482 85.7144 253.532 85.7144 251.284 88.2534C249.879 89.6383 248.896 91.3694 247.772 92.8697C246.508 94.4854 245.524 96.1011 244.119 97.486C238.781 102.795 230.633 102.679 225.575 97.1398C223.889 95.2933 222.765 93.2159 221.22 91.3694C220.237 90.0999 219.253 88.715 217.989 87.6763C216.163 85.9452 213.634 85.9452 211.808 87.6763C210.543 88.8304 209.56 90.0999 208.576 91.3694C207.031 93.3313 205.907 95.2933 204.221 97.1398C199.164 102.679 190.875 102.795 185.677 97.3706C183.991 95.5241 182.727 93.4467 181.182 91.4848C180.198 90.2153 179.215 88.8304 178.091 87.6763C176.124 85.8298 173.455 85.7144 171.629 87.5609C170.224 88.8304 169.1 90.4461 167.976 91.9464C166.431 93.793 165.166 95.8703 163.48 97.486C158.844 102.218 151.118 102.449 146.201 97.8323C144.515 96.2165 143.25 94.2546 141.705 92.4081C140.581 90.9078 139.598 89.4074 138.333 88.0225C135.945 85.4836 132.854 85.4836 130.607 88.138C129.202 89.6383 128.218 91.3694 126.954 92.9851C125.549 94.7162 124.285 96.5628 122.599 98.0631C117.963 102.333 110.658 102.218 106.021 97.9477C104.195 96.2165 102.79 94.1392 101.245 92.1772C100.121 90.7923 99.1377 89.292 97.8734 87.9071C95.7661 85.7144 92.9564 85.599 90.7086 87.7917C89.1633 89.292 88.0393 91.1386 86.7749 92.7543C85.651 94.2546 84.5272 95.8703 83.1223 97.2552C78.0648 102.449 69.9166 102.449 64.9996 97.2552C63.4542 95.6395 62.1899 93.6776 60.785 91.831C59.6611 90.3307 58.6777 88.8304 57.2728 87.5609C55.1656 85.599 52.4962 85.599 50.5294 87.6763C49.2651 88.9458 48.2818 90.4461 47.1579 91.831C45.753 93.6776 44.4885 95.6395 42.8027 97.3706C37.6047 102.564 29.4565 102.564 24.5395 97.2552C22.8537 95.4087 21.5894 93.3313 20.044 91.3694C19.0606 90.0999 18.0771 88.715 16.8128 87.5609C14.9864 85.8298 12.4578 85.8298 10.6315 87.5609C9.22665 88.8304 8.24311 90.3307 6.97874 91.831C5.29291 93.9084 3.88808 96.2165 1.92127 98.0631C-2.85526 102.564 -10.4415 102.333 -15.0775 97.8323C-16.7633 96.2165 -18.0277 94.2546 -19.4326 92.4081C-20.2755 91.3694 -20.978 90.2153 -21.8209 89.1766C-22.9448 87.7917 -24.2091 86.6376 -26.3164 86.4068C-26.3164 84.5603 -26.3164 82.8292 -26.3164 80.9826C-23.7877 80.8672 -21.5399 81.4443 -19.8541 82.8292C-17.8873 84.4449 -16.2013 86.2914 -14.656 88.138C-13.1106 89.9845 -11.9868 92.0618 -10.301 93.793C-7.91269 96.4474 -4.96251 96.4474 -2.43376 93.793C-1.0289 92.2927 -0.0455336 90.6769 1.21884 89.0612C2.34273 87.5609 3.46659 85.9452 4.87145 84.5603C9.78846 79.4823 18.0772 79.4823 22.8537 84.5603C24.5396 86.4068 25.8039 88.4842 27.3492 90.3307C28.3326 91.6002 29.3161 92.9851 30.44 94.1392C32.6878 96.2165 35.357 96.2165 37.4643 94.0238C38.7287 92.6389 39.7121 91.1386 40.836 89.6383C42.3814 87.7917 43.6457 85.7144 45.3315 84.0987C50.1081 79.5977 57.4133 79.4823 62.3303 83.9833C64.1566 85.7144 65.5616 87.7917 66.9664 89.7537C68.0903 91.1386 68.9331 92.6389 70.1975 93.9084C72.4453 96.3319 75.3956 96.3319 77.6433 93.9084C79.0482 92.5235 80.0316 90.7923 81.1555 89.292C82.7008 87.4455 83.9653 85.3682 85.7916 83.7524C90.7086 79.3669 98.1543 79.5977 102.79 84.0987C104.617 85.8298 105.881 87.9071 107.426 89.8691C108.55 91.254 109.393 92.6389 110.658 93.9084C112.765 96.1011 115.715 96.1011 117.822 93.9084C119.368 92.2927 120.492 90.3307 121.896 88.5996C123.582 86.6376 125.128 84.4449 127.375 82.7138C131.59 79.5977 137.912 79.8286 141.845 83.06C143.812 84.6757 145.217 86.7531 146.903 88.715C148.167 90.2153 149.01 91.831 150.275 93.2159C152.944 96.1011 156.035 96.1011 158.563 93.2159C160.109 91.4848 161.233 89.6383 162.637 87.7917C163.902 86.176 165.166 84.5603 166.852 83.1754C171.067 79.5977 177.67 79.4823 182.025 82.9446C183.991 84.5603 185.537 86.6376 187.082 88.5996C188.346 90.0999 189.33 91.831 190.594 93.3313C193.123 96.1011 196.073 96.1011 198.602 93.4467C199.726 92.2927 200.569 91.0232 201.412 89.7537C202.816 87.9071 204.081 85.9452 205.767 84.2141C210.684 79.1361 218.832 79.1361 223.749 84.2141C225.575 86.176 226.98 88.3688 228.666 90.4461C229.649 91.6002 230.492 92.8697 231.616 94.0238C233.583 95.8703 236.252 95.8703 238.219 94.0238C239.624 92.6389 240.748 90.9078 242.012 89.292C243.417 87.4455 244.681 85.4836 246.508 83.8678C251.144 79.3669 258.449 79.2515 263.225 83.5216C264.911 85.0219 266.176 86.8685 267.581 88.715C268.704 90.2153 269.688 91.7156 270.812 93.1005C271.795 94.37 273.2 95.2933 275.026 95.4087C275.307 97.6014 275.307 99.448 275.307 101.295Z" fill="#70316E"/>
</g>
<defs>
<clipPath id="clip0_1372_437">
<rect width="375" height="145" fill="white"/>
</clipPath>
</defs>
</svg>
