<svg width="138" height="116" viewBox="0 0 138 116" fill="none" xmlns="http://www.w3.org/2000/svg">
<g clip-path="url(#clip0_1372_508)">
<path d="M137.819 112.306C134.415 103.47 131.708 94.686 129.078 86.1862C123.921 69.91 119.279 54.5123 110.358 39.5279C109.542 38.2644 108.423 37.2263 107.103 36.5086C105.783 35.7909 104.305 35.4166 102.803 35.4201C100.475 35.3091 98.1651 35.8743 96.1505 37.0477C93.3779 29.2608 91.1381 21.2937 89.4464 13.2018C88.5955 9.58488 87.822 6.27797 87.1258 3.69445C87.0494 3.44269 86.9457 3.20011 86.8164 2.97107C86.3714 2.18032 85.7523 1.5017 85.0061 0.986854C84.2599 0.472006 83.4063 0.1345 82.5103 2.05616e-05C77.9464 -0.439178 73.3825 4.3145 69.618 8.13811L68.8444 8.91316C67.1057 10.9545 65.712 13.2671 64.7189 15.7595C63.4296 18.498 62.1404 21.0557 60.5159 21.4174C59.3232 21.3351 58.1704 20.953 57.1639 20.3065C55.0627 18.9792 52.5541 18.4563 50.0989 18.8339C44.2458 20.3065 40.8422 26.2744 37.8254 32.2423C30.683 46.5034 24.7525 59.576 19.0025 72.3386C13.2525 85.1011 7.37356 97.9412 0.282751 112.073C0.0757209 112.477 -0.0213697 112.929 0.00126445 113.382C0.0238986 113.836 0.165458 114.275 0.411675 114.657C0.643131 115.059 0.978381 115.391 1.38219 115.618C1.78601 115.845 2.24347 115.959 2.70652 115.948H135.292C135.732 115.956 136.167 115.851 136.555 115.643C136.943 115.435 137.272 115.131 137.509 114.76C137.762 114.409 137.922 114.001 137.976 113.572C138.03 113.143 137.976 112.708 137.819 112.306ZM51.4139 24.1043H51.7233C52.8044 24.2869 53.8438 24.6632 54.7917 25.2152C56.8265 26.4969 59.2373 27.0438 61.6247 26.7653C65.9565 25.8352 67.8904 21.7274 69.618 18.0847C70.4054 16.1412 71.4835 14.3292 72.8153 12.7109L73.5888 11.91C75.3422 10.0757 80.0608 5.16706 81.8141 5.42541C81.8141 5.42541 81.9431 5.42541 82.0204 5.58042C82.665 8.03476 83.387 11.1092 84.1863 14.4419C86.3523 23.6392 89.0339 34.8775 92.2054 41.4655C88.7752 47.2775 84.3092 52.409 79.0294 56.6049C77.8936 54.6151 77.0676 52.4632 76.5798 50.2236C76.4937 49.8591 76.3351 49.5156 76.1136 49.2138C75.8921 48.912 75.6122 48.6579 75.2906 48.4668C74.9684 48.2721 74.6075 48.1503 74.2334 48.1102C73.8592 48.07 73.4808 48.1124 73.1247 48.2343C63.4296 51.2829 56.7256 59.421 50.3052 67.1715C48.9386 68.825 47.5978 70.4784 46.2312 72.0544C46.1407 71.8617 46.0632 71.6632 45.9991 71.4602C43.0034 62.2035 40.8628 52.6906 39.6045 43.0414C39.5473 42.6216 39.3879 42.2224 39.1404 41.8789C40.3007 39.502 41.4352 37.1252 42.6729 34.6967C44.9935 30.0463 47.8041 25.0085 51.4139 24.1043ZM7.08993 110.575C13.3556 97.8637 18.7446 86.0054 23.9274 74.4054C27.5372 66.474 31.2245 58.3617 35.1953 49.9394C36.5208 57.8152 38.4079 65.5857 40.8422 73.1911C42.2088 77.3764 44.6067 78.074 45.9991 78.074H46.2054C46.9995 77.9849 47.7668 77.7323 48.4589 77.3322C49.1511 76.9321 49.7533 76.393 50.2278 75.7488C51.646 74.0953 53.0384 72.3902 54.4565 70.5818C59.7682 64.1488 65.2345 57.5092 72.1191 54.3314C72.8169 56.3753 73.7424 58.3339 74.878 60.1702C75.423 61.2191 76.3443 62.0222 77.4565 62.4178C78.159 62.5668 78.8865 62.5486 79.5806 62.3646C80.2747 62.1806 80.9161 61.8361 81.4532 61.3586C88.102 56.2969 93.6328 49.9107 97.6976 42.6022C97.7096 42.5513 97.7096 42.4982 97.6976 42.4472C98.3296 41.8603 99.0731 41.4068 99.8838 41.1139C100.694 40.8209 101.556 40.6945 102.416 40.7421C103.016 40.7207 103.612 40.8432 104.154 41.0994C104.697 41.3555 105.171 41.7379 105.536 42.2147C107.161 44.9274 108.605 47.6659 109.971 50.4303C108.166 53.2722 106.284 56.0882 104.298 58.7751C104.093 59.0492 104.005 59.3937 104.054 59.7328C104.102 60.072 104.283 60.378 104.556 60.5835C104.777 60.7566 105.05 60.8479 105.33 60.8419C105.53 60.8399 105.726 60.7924 105.905 60.7028C106.084 60.6133 106.24 60.4842 106.361 60.3252C108.089 58 109.739 55.5973 111.312 53.143C112.008 54.6414 112.653 56.1399 113.297 57.6383C110.759 60.0873 108.454 62.7686 106.413 65.6472C106.315 65.784 106.245 65.9391 106.207 66.1033C106.169 66.2676 106.165 66.4377 106.193 66.6037C106.222 66.7698 106.284 66.9284 106.375 67.0702C106.465 67.2121 106.584 67.3344 106.722 67.4299C106.934 67.6011 107.198 67.6925 107.47 67.6882C107.675 67.6845 107.876 67.6308 108.056 67.5317C108.235 67.4327 108.388 67.2913 108.501 67.1198C110.263 64.6664 112.23 62.3674 114.38 60.2477C114.948 61.6428 115.515 63.0379 116.056 64.4588L111.544 69.0316C111.423 69.1517 111.327 69.2946 111.262 69.452C111.196 69.6094 111.163 69.7783 111.163 69.9488C111.163 70.1193 111.196 70.2882 111.262 70.4456C111.327 70.603 111.423 70.7459 111.544 70.8659C111.661 70.9854 111.802 71.0792 111.957 71.1414C112.113 71.2037 112.279 71.233 112.446 71.2276C112.795 71.2268 113.129 71.0874 113.375 70.8401L117.165 67.1715C117.603 68.3599 118.042 69.5742 118.454 70.7626C118.388 70.8351 118.328 70.9129 118.274 70.9951C116.718 73.6266 114.731 75.9761 112.395 77.9448C112.195 78.1157 112.053 78.3435 111.986 78.5979C111.919 78.8522 111.931 79.1209 112.021 79.368C112.111 79.6152 112.274 79.829 112.488 79.981C112.702 80.1329 112.958 80.2157 113.22 80.2183C113.52 80.227 113.814 80.126 114.045 79.9341C116.129 78.1616 117.96 76.1099 119.486 73.837C120.019 75.4043 120.534 76.9803 121.033 78.5648C118.609 81.51 116.031 84.3002 113.452 86.9613C113.331 87.0814 113.235 87.2242 113.17 87.3816C113.104 87.5391 113.071 87.7079 113.071 87.8784C113.071 88.0489 113.104 88.2178 113.17 88.3752C113.235 88.5326 113.331 88.6755 113.452 88.7956C113.569 88.915 113.71 89.0088 113.866 89.071C114.021 89.1333 114.187 89.1626 114.355 89.1573C114.691 89.1593 115.015 89.0295 115.257 88.7956C117.578 86.4446 119.795 84.0161 121.961 81.5359C122.528 83.396 123.121 85.282 123.714 87.168L118.815 92.8C118.594 93.0623 118.483 93.4008 118.508 93.7434C118.532 94.0861 118.688 94.4057 118.944 94.6343C119.206 94.8561 119.544 94.9668 119.886 94.9426C120.228 94.9185 120.547 94.7615 120.775 94.5052L124.617 90.0615L125.932 94.3243C123.121 97.7087 120.156 100.99 117.088 104.116C116.967 104.236 116.871 104.379 116.805 104.536C116.74 104.694 116.706 104.862 116.706 105.033C116.706 105.204 116.74 105.372 116.805 105.53C116.871 105.687 116.967 105.83 117.088 105.95C117.335 106.175 117.656 106.304 117.99 106.312C118.339 106.311 118.672 106.172 118.918 105.924C121.652 103.16 124.307 100.215 126.86 97.2178C128.252 101.61 129.748 106.079 131.372 110.575H7.08993Z" fill="#70316E"/>
</g>
<defs>
<clipPath id="clip0_1372_508">
<rect width="138" height="116" fill="white"/>
</clipPath>
</defs>
</svg>
