<svg width="115" height="119" viewBox="0 0 115 119" fill="none" xmlns="http://www.w3.org/2000/svg">
<g clip-path="url(#clip0_1372_512)">
<path d="M114.94 36.384C114.911 35.7776 114.694 35.195 114.319 34.7159C113.944 34.2367 113.43 33.8844 112.847 33.707C112.264 33.5296 111.639 33.5357 111.06 33.7246C110.48 33.9135 109.973 34.2759 109.608 34.7623C104.838 41.2784 95.5661 44.2269 81.1689 43.932H80.6061C77.162 43.6392 73.6931 43.9485 70.3562 44.8461C66.7439 46.2084 63.506 48.4006 60.9062 51.2442C55.9097 56.4129 51.8415 62.3966 48.8789 68.935C48.8789 68.3453 49.0566 67.7261 49.1751 67.1364C50.208 61.9429 50.8516 56.6801 51.1006 51.3916C51.4294 47.2394 52.4297 43.1672 54.063 39.3324C54.3593 38.4479 54.6851 37.5634 55.011 36.6493C60.9358 39.9516 75.2441 30.4576 80.1321 24.4132C82.3539 21.7301 84.6053 15.0371 82.9463 11.7938C82.1897 10.484 81.0285 9.45226 79.6354 8.85198C78.2424 8.25169 76.6919 8.11493 75.2145 8.46202C69.0527 9.55295 65.4979 14.7128 60.9358 18.3983C61.5283 11.0272 56.8477 2.44715 51.4561 0.20632C43.3096 -1.73967 42.332 10.8208 43.0726 17.5138C43.9737 22.9643 46.3613 28.0638 49.9749 32.2561C49.4713 33.9367 48.8789 35.5879 48.2568 37.298C47.1249 40.2568 46.2043 43.2914 45.5017 46.3793C43.8402 40.7762 41.2576 35.4858 37.8588 30.7229L37.1774 29.8384C32.3487 23.853 26.6609 23.5876 21.3286 23.3223C19.1418 23.2655 16.9627 23.0387 14.8114 22.6441C12.8779 22.2346 11.0563 21.4139 9.47124 20.2383C7.88618 19.0627 6.57515 17.56 5.62796 15.8332C5.33421 15.2291 4.84222 14.7429 4.23327 14.4548C3.62433 14.1667 2.93486 14.094 2.27877 14.2487C1.62268 14.4033 1.03923 14.7761 0.624798 15.3054C0.210368 15.8348 -0.0102417 16.489 -0.000585272 17.16C-0.318467 25.5321 0.177572 33.9153 1.48061 42.1924C1.43617 42.3865 1.43617 42.5881 1.48061 42.7821C2.36358 48.0792 4.17872 53.1796 6.84254 57.8488C11.0686 64.8824 17.741 70.1281 25.5945 72.5911L26.3943 72.827C29.7321 74.1133 33.2494 74.8791 36.8219 75.0973C38.4899 75.1287 40.1426 74.7755 41.6506 74.0653C39.6858 87.9604 39.1498 102.019 40.0509 116.022C40.087 116.792 40.4107 117.522 40.9586 118.067C41.5065 118.612 42.2393 118.935 43.0133 118.97H43.1614C43.9893 118.925 44.7654 118.555 45.3204 117.942C45.8754 117.329 46.1642 116.522 46.1238 115.698C46.1238 114.872 46.1238 114.105 46.1238 113.28C46.1238 111.629 46.1238 110.037 46.1238 108.533C45.7404 104.77 46.072 100.969 47.1014 97.3287C47.8384 98.4745 48.7826 99.4742 49.8861 100.277C52.753 102.127 56.1308 103.034 59.5435 102.872C64.7484 102.63 69.9077 101.789 74.9183 100.366L76.1328 100.071C87.0631 97.7569 96.9227 91.9228 104.187 83.4709C114.822 70.2028 115.296 52.2172 114.94 36.384ZM39.6658 68.5517C37.2663 70.1439 32.1117 68.5517 28.3495 67.2544L27.5496 66.989C27.0164 66.8121 26.4536 66.6352 25.8907 66.3993C27.288 64.8682 28.5377 63.2098 29.6233 61.4459C29.8156 61.11 29.8677 60.7124 29.7683 60.3387C29.6689 59.9651 29.426 59.6452 29.0919 59.448C28.7579 59.2508 28.3593 59.1921 27.9822 59.2845C27.6051 59.377 27.2795 59.6132 27.0757 59.9422C25.9708 61.795 24.6698 63.5248 23.1949 65.102C21.3765 64.1732 19.6675 63.0458 18.0996 61.7408V61.7408L24.3206 55.431C24.4595 55.294 24.5697 55.1309 24.6449 54.9513C24.7201 54.7716 24.7588 54.579 24.7588 54.3843C24.7588 54.1897 24.7201 53.997 24.6449 53.8174C24.5697 53.6377 24.4595 53.4747 24.3206 53.3376C24.1855 53.2003 24.0242 53.0913 23.8461 53.0168C23.6681 52.9423 23.4769 52.904 23.2838 52.904C23.0907 52.904 22.8995 52.9423 22.7215 53.0168C22.5434 53.0913 22.3821 53.2003 22.247 53.3376L16.0259 59.6473C15.0722 58.6183 14.1913 57.5248 13.3894 56.3746C15.517 53.5066 17.8856 50.8236 20.4695 48.3547C20.6267 48.2256 20.7554 48.0657 20.8476 47.8848C20.9399 47.704 20.9936 47.5061 21.0055 47.3037C21.0174 47.1012 20.9872 46.8985 20.9167 46.7082C20.8463 46.5178 20.7372 46.344 20.5962 46.1976C20.4552 46.0512 20.2854 45.9353 20.0974 45.8572C19.9093 45.779 19.7071 45.7404 19.5034 45.7436C19.2996 45.7468 19.0987 45.7918 18.9133 45.8758C18.7278 45.9598 18.5617 46.081 18.4255 46.2318C16.0042 48.5344 13.775 51.0292 11.7601 53.6914C11.0747 52.4238 10.4712 51.114 9.95305 49.77C9.95305 49.77 9.95305 49.77 10.1012 49.77C13.3033 45.4703 16.27 41.0018 18.9883 36.384C19.0898 36.22 19.1573 36.0376 19.1868 35.8473C19.2164 35.657 19.2075 35.4628 19.1606 35.276C19.1137 35.0892 19.0297 34.9136 18.9136 34.7596C18.7976 34.6056 18.6517 34.4762 18.4847 34.379C18.3177 34.2774 18.1321 34.2097 17.9387 34.1799C17.7452 34.15 17.5477 34.1587 17.3577 34.2053C17.1676 34.2519 16.9887 34.3356 16.8313 34.4514C16.6739 34.5673 16.5411 34.713 16.4407 34.8803C14.0708 38.8607 11.4639 42.7527 8.70884 46.4972C8.10977 44.4637 7.63492 42.396 7.2869 40.3054C8.87017 38.5975 10.2701 36.7299 11.4639 34.7328C11.6681 34.3927 11.7283 33.9857 11.6311 33.6014C11.5338 33.2171 11.2872 32.887 10.9454 32.6836C10.6037 32.4803 10.1948 32.4205 9.80865 32.5172C9.42254 32.614 9.09086 32.8595 8.88659 33.1996C8.23451 34.2963 7.51217 35.3501 6.72404 36.3545C6.26297 32.5669 5.99601 28.7585 5.9242 24.9439C8.18389 26.6488 10.7935 27.8367 13.5672 28.4231C16.0289 28.891 18.5265 29.1475 21.0324 29.1897C25.8907 29.4846 29.416 29.4846 32.5857 33.4945L33.0597 34.1137C39.0898 42.6223 42.1398 52.8692 41.7395 63.274C41.7987 64.2507 41.644 65.2285 41.2859 66.1398C40.9278 67.0511 40.3751 67.8741 39.6658 68.5517V68.5517ZM99.595 79.8443C96.7265 83.4023 93.2212 86.4013 89.2562 88.6897L83.3315 83.6478C83.1881 83.497 83.0143 83.3779 82.8215 83.2985C82.6287 83.2192 82.4212 83.1812 82.2126 83.1872C82.0041 83.1932 81.7991 83.243 81.6112 83.3333C81.4233 83.4236 81.2567 83.5524 81.1223 83.7112C80.9879 83.8701 80.8888 84.0554 80.8313 84.255C80.7739 84.4547 80.7595 84.6642 80.7891 84.8697C80.8186 85.0753 80.8915 85.2724 81.0029 85.448C81.1143 85.6235 81.2617 85.7737 81.4355 85.8887L86.5901 90.1934C85.3163 90.8421 84.0424 91.4023 82.7686 91.9035C80.5033 90.4141 78.3453 88.7687 76.3106 86.9796C76.0337 86.7095 75.6615 86.5582 75.2738 86.5582C74.886 86.5582 74.5138 86.7095 74.2369 86.9796C74.0981 87.1167 73.9879 87.2797 73.9127 87.4594C73.8375 87.639 73.7988 87.8317 73.7988 88.0263C73.7988 88.2209 73.8375 88.4136 73.9127 88.5933C73.9879 88.7729 74.0981 88.936 74.2369 89.073C75.807 90.4588 77.4659 91.7856 79.1841 93.0534C78.0584 93.4073 76.9919 93.7316 75.9551 93.9969C74.225 92.6545 72.37 91.4796 70.4154 90.4883C70.06 90.3197 69.6532 90.2929 69.2785 90.4136C68.9039 90.5342 68.5899 90.7931 68.401 91.1369C68.2253 91.4851 68.1953 91.8883 68.3174 92.2585C68.4395 92.6287 68.7039 92.9357 69.0527 93.1124C70.0708 93.6819 71.0595 94.3019 72.0151 94.9699C65.4682 96.5326 57.2032 98.2722 53.2632 95.4417C51.893 94.3576 50.9834 92.7996 50.7155 91.078C54.7148 86.9501 61.7949 83.9427 67.69 81.466C69.2601 80.8173 70.6524 80.1981 72.0744 79.579C80.6061 75.7165 89.8487 70.5567 94.2034 61.4754C94.4518 60.7858 94.4333 60.0289 94.1517 59.3521C93.87 58.6753 93.3453 58.1271 92.6798 57.8143C92.0142 57.5015 91.2555 57.4465 90.5514 57.66C89.8474 57.8735 89.2484 58.3402 88.8711 58.9692C85.3755 66.3109 77.1993 70.7631 69.6748 74.2128C68.3714 74.8024 66.9494 75.3921 65.409 76.0408C60.2304 78.0213 55.2676 80.5207 50.597 83.5004C52.4387 72.8488 57.527 63.0185 65.172 55.3426V55.3426C67.0844 53.1615 69.5054 51.4809 72.2225 50.4481C73.9993 49.921 75.8498 49.6821 77.7029 49.7405H80.4283H81.0208C93.4628 50.0943 102.765 48.0304 109.104 43.4013C109.015 56.3746 107.505 69.908 99.595 79.8443V79.8443Z" fill="#9DB83F"/>
</g>
<defs>
<clipPath id="clip0_1372_512">
<rect width="115" height="119" fill="white"/>
</clipPath>
</defs>
</svg>
