<svg width="63" height="63" viewBox="0 0 63 63" fill="none" xmlns="http://www.w3.org/2000/svg">
<path d="M31.5 63C48.897 63 63 48.897 63 31.5C63 14.103 48.897 0 31.5 0C14.103 0 0 14.103 0 31.5C0 48.897 14.103 63 31.5 63Z" fill="white"/>
<path d="M19.8369 22.4079C19.8369 21.7286 19.8369 21.0492 19.9414 20.3804C19.9355 19.9832 20.0264 19.5907 20.2062 19.2366C20.3861 18.8824 20.6495 18.5775 20.9736 18.348C21.2978 18.1185 21.673 17.9714 22.0667 17.9195C22.4605 17.8675 22.861 17.9122 23.2336 18.0497C28.2128 19.3172 33.0464 21.1 37.6562 23.3694C40.3805 24.6305 43.0943 25.923 45.7977 27.2468C48.2015 28.4278 48.3897 29.8387 46.3726 31.5945C41.2192 35.8495 35.5478 39.4349 29.4938 42.2652C27.8634 43.0804 26.2331 43.8852 24.5818 44.669C22.7528 45.5156 21.4464 44.9094 21.1852 42.8818C20.7462 39.6106 20.4326 36.308 20.2131 33.0054C19.9728 29.4938 19.8995 25.9718 19.7637 22.4497L19.8369 22.4079Z" fill="#70316E"/>
</svg>
