<svg width="189" height="186" viewBox="0 0 189 186" fill="none" xmlns="http://www.w3.org/2000/svg">
<path d="M61.7705 160.58C55.0805 162.83 48.6005 164.72 42.3605 167.2C36.4205 169.55 32.5804 165.2 33.2904 160.11C34.0304 154.76 34.5205 149.37 35.1005 144C35.2405 142.69 35.3205 141.37 35.4505 139.75C30.4505 139.16 25.6505 138.57 20.8105 138.01C18.7505 137.77 16.6705 137.63 14.6205 137.32C9.35051 136.53 7.25043 132.13 10.0304 127.57C13.4004 122.03 16.8805 116.57 20.3105 111.06C20.5705 110.65 20.7905 110.21 21.1205 109.61C15.2505 105.87 9.41043 102.22 3.66043 98.4402C2.41204 97.6584 1.38037 96.5753 0.660432 95.2903C-0.799568 92.3403 0.300495 89.6602 3.6005 87.5202C8.2805 84.5202 13.0105 81.5202 17.7105 78.5202C18.8305 77.8102 19.9405 77.0802 21.2005 76.2602C17.6405 70.5502 14.1405 64.9202 10.6205 59.2602C6.96051 53.3902 9.08054 49.2002 16.0205 48.4602C22.4505 47.7802 28.8704 47.0202 35.5504 46.2602C34.8804 40.0202 34.2404 34.0002 33.5504 27.9802C33.4304 26.8202 33.2605 25.6602 33.2505 24.5002C33.2505 19.6602 36.8205 16.9602 41.4505 18.5002C48.1405 20.7202 54.8005 23.0501 61.7405 25.4301L65.3405 15.2302C66.4805 12.0202 67.5805 8.79006 68.7405 5.59006C70.5405 0.59006 75.3705 -0.589959 79.1805 3.07004C83.7305 7.45004 88.1804 11.9701 92.6504 16.4201C93.1104 16.8801 93.6505 17.2901 94.5205 18.1001C97.5205 15.0001 100.4 11.9301 103.35 8.91013C105.257 6.91013 107.204 4.97675 109.19 3.11008C113.03 -0.56992 117.85 0.520207 119.65 5.49021C121.71 11.2002 123.65 16.9301 125.65 22.6501C125.95 23.5001 126.28 24.3401 126.65 25.4001L139.261 21.0901C141.422 20.4853 143.543 19.7438 145.611 18.8701C150.721 16.3501 156.01 19.4801 155.04 26.4001C154.14 32.8901 153.57 39.4002 152.82 46.2302C156.5 46.6602 159.931 47.0802 163.361 47.4602C166.791 47.8402 170.14 48.1803 173.53 48.5503C178.9 49.1503 181.18 53.7003 178.35 58.3103C174.7 64.2603 170.97 70.1602 167.18 76.2302C173.11 80.0002 178.93 83.6701 184.72 87.3901C188.06 89.5401 189.21 92.2201 187.79 95.1201C187.08 96.4226 186.047 97.5212 184.79 98.3103C179.04 102.1 173.19 105.76 167.18 109.58L176.18 124.03C176.84 125.09 177.52 126.13 178.18 127.2C181.18 132.2 179.121 136.6 173.381 137.31C167.441 138.04 161.49 138.68 155.54 139.31L152.85 139.64C153.53 145.87 154.18 151.89 154.85 157.9C154.96 158.9 155.101 159.9 155.141 160.9C155.301 166.17 151.69 168.9 146.66 167.22C140.11 165.06 133.581 162.83 126.761 160.53C126.401 161.39 126.031 162.18 125.761 163C123.821 168.49 121.9 174 119.95 179.46C117.71 185.77 113.24 186.78 108.46 181.99C103.83 177.34 99.2605 172.61 94.4605 167.71C93.2005 168.91 92.1805 169.84 91.2005 170.81L79.4905 182.4C75.3005 186.53 70.6504 185.52 68.6704 180.02C66.4004 173.69 64.1505 167.3 61.7705 160.58Z" fill="#D7224C"/>
<path d="M49.4861 111.4C48.9528 111.4 48.4695 111.317 48.0361 111.15V79.9C48.0361 78.5 48.3361 77.4333 48.9361 76.7C49.5695 75.9667 50.4695 75.6 51.6361 75.6C52.3695 75.6 52.9861 75.7167 53.4861 75.95L68.7361 104.5V78.85C68.7361 77.8833 68.9861 77.1 69.4861 76.5C69.9861 75.9 70.6861 75.6 71.5861 75.6C72.1528 75.6 72.6361 75.6833 73.0361 75.85V107.1C73.0361 108.5 72.7195 109.567 72.0861 110.3C71.4861 111.033 70.6028 111.4 69.4361 111.4C68.7028 111.4 68.0861 111.283 67.5861 111.05L52.3361 82.5V108.15C52.3361 109.117 52.0861 109.9 51.5861 110.5C51.0861 111.1 50.3861 111.4 49.4861 111.4ZM101.344 107.2C101.477 107.6 101.544 108.033 101.544 108.5C101.544 109.3 101.277 109.917 100.744 110.35C100.244 110.783 99.5606 111 98.6939 111H80.6439L80.2439 109.95C80.6773 108.95 80.9606 107.917 81.0939 106.85C81.2606 105.75 81.3439 104.183 81.3439 102.15V84.85C81.3439 82.8167 81.2606 81.2667 81.0939 80.2C80.9606 79.1 80.6773 78.05 80.2439 77.05L80.6439 76H100.544C100.677 76.4 100.744 76.8333 100.744 77.3C100.744 78.1 100.477 78.7167 99.9439 79.15C99.4439 79.5833 98.7606 79.8 97.8939 79.8H85.1439C85.3773 80.5333 85.5273 81.3 85.5939 82.1C85.6939 82.8667 85.7439 83.7833 85.7439 84.85V91.2H98.9439C99.0773 91.6 99.1439 92.0333 99.1439 92.5C99.1439 93.3 98.8773 93.9167 98.3439 94.35C97.8439 94.7833 97.1606 95 96.2939 95H85.7439V102.15C85.7439 103.217 85.6939 104.15 85.5939 104.95C85.5273 105.717 85.3773 106.467 85.1439 107.2H101.344ZM104.171 77.95C104.071 77.65 104.021 77.35 104.021 77.05C104.021 76.15 104.704 75.7 106.071 75.7C106.937 75.7 107.637 75.9167 108.171 76.35L114.721 102.45L122.521 76H125.321L132.771 102.3L138.771 78.2C139.204 76.5333 140.221 75.7 141.821 75.7C142.621 75.7 143.271 75.9667 143.771 76.5L134.371 111H131.571L123.871 84.65L115.821 111H113.021L104.171 77.95Z" fill="#F8F8F8"/>
</svg>
