<svg width="38" height="58" viewBox="0 0 38 58" fill="none" xmlns="http://www.w3.org/2000/svg">
<path d="M19.0815 35.2264V3.34064C19.0815 1.34976 20.3435 -0.0512325 22.1386 0.0014364C22.7004 0.0208935 23.2476 0.180541 23.727 0.464917C25.1521 1.33922 26.5338 2.27673 27.9045 3.23531C33.3441 7.02747 36.3251 12.3154 37.5327 18.583C37.8324 20.3768 37.9852 22.1908 37.9896 24.0079C38.0236 24.4121 37.9739 24.8188 37.8434 25.2041C37.7129 25.5894 37.5043 25.9456 37.2296 26.2518C36.955 26.5579 36.6199 26.8079 36.2441 26.987C35.8683 27.166 35.4594 27.2706 35.0413 27.2945C34.6163 27.3225 34.1899 27.2642 33.7896 27.1234C33.3892 26.9826 33.0237 26.7622 32.7164 26.4766C32.4091 26.191 32.1668 25.8463 32.0052 25.4647C31.8435 25.0831 31.7659 24.673 31.7775 24.2607C31.782 21.4352 31.2663 18.6315 30.2545 15.9812C29.2272 13.3357 27.5463 10.974 25.3589 9.10262V45.7812C25.3168 48.2373 24.526 50.6265 23.0859 52.6487C21.6458 54.671 19.6206 56.236 17.2647 57.1472C15.312 57.8929 13.1981 58.1556 11.1141 57.9115C9.03016 57.6675 7.04186 56.9243 5.32902 55.7494C3.61618 54.5744 2.23278 53.0046 1.3039 51.182C0.375023 49.3593 -0.0700274 47.3412 0.00894294 45.3102C0.0879133 43.2791 0.688443 41.2992 1.75623 39.5493C2.82401 37.7994 4.32534 36.3348 6.12457 35.2878C7.9238 34.2409 9.96419 33.6446 12.0612 33.553C14.1582 33.4613 16.2457 33.8772 18.1351 34.7629L19.0815 35.2264Z" fill="#70316E"/>
</svg>
