<svg width="152" height="160" viewBox="0 0 152 160" fill="none" xmlns="http://www.w3.org/2000/svg">
<g clip-path="url(#clip0_1372_500)">
<path d="M77.3951 100.183C74.1701 100.312 70.9696 99.5695 68.1302 98.0321C65.2908 96.4948 62.9172 94.2196 61.259 91.4459C60.9782 91.1512 60.7624 90.8008 60.6253 90.4173C60.4882 90.0338 60.4329 89.6258 60.4631 89.2196C60.4932 88.8134 60.6081 88.4181 60.8003 88.0591C60.9924 87.7002 61.2577 87.3856 61.5788 87.1357C61.8769 86.8893 62.2212 86.7049 62.5913 86.5933C62.9615 86.4817 63.3502 86.4452 63.7346 86.4858C64.119 86.5265 64.4915 86.6436 64.8302 86.8302C65.1689 87.0168 65.4671 87.2691 65.7073 87.5725C65.9996 87.8559 66.2626 88.1682 66.4923 88.5045C67.5706 90.018 68.9365 91.3033 70.5118 92.2868C72.0871 93.2703 73.8408 93.9326 75.6723 94.2356C77.5037 94.5387 79.3768 94.4765 81.1842 94.0528C82.9916 93.629 84.6977 92.852 86.2046 91.7662C87.7456 90.7178 89.1121 89.582 90.6821 88.4171C92.2521 87.2522 94.171 86.8153 95.3339 88.0094C96.4969 89.2034 96.4969 91.0673 94.8106 92.7855C90.1705 97.4018 83.9337 100.051 77.3951 100.183V100.183Z" fill="#F1AE1D"/>
<path d="M92.2821 56.1198C93.8349 56.2579 95.3389 56.7333 96.6896 57.5129C98.0403 58.2924 99.2051 59.3575 100.103 60.6338C100.354 60.9068 100.548 61.2281 100.671 61.5782C100.794 61.9283 100.845 62.3 100.821 62.6704C100.797 63.0409 100.697 63.4026 100.529 63.7333C100.36 64.0641 100.126 64.3571 99.8414 64.5945C99.3022 65.1024 98.5899 65.3851 97.8498 65.3851C97.1097 65.3851 96.3975 65.1024 95.8583 64.5945C95.3349 64.1868 94.957 63.6044 94.4045 63.2258C93.8224 62.5699 93.0084 62.1667 92.1347 62.1015C91.261 62.0363 90.3963 62.3141 89.7236 62.8763C89.2154 63.3066 88.6814 63.7054 88.1245 64.0703C87.6144 64.5667 86.9313 64.8443 86.2201 64.8443C85.509 64.8443 84.8259 64.5667 84.3158 64.0703C84.0201 63.8451 83.775 63.56 83.5966 63.2336C83.4182 62.9072 83.3104 62.5469 83.2802 62.176C83.2501 61.8051 83.2982 61.432 83.4215 61.081C83.5448 60.73 83.7406 60.409 83.996 60.1388C84.9597 58.8584 86.2139 57.8262 87.6547 57.1273C89.0955 56.4285 90.6817 56.0832 92.2821 56.1198V56.1198Z" fill="#F1AE1D"/>
<path d="M65.5335 56.0908C67.0084 56.177 68.4451 56.5933 69.7382 57.3089C71.0313 58.0246 72.1478 59.0215 73.0056 60.2262C73.2407 60.7743 73.3472 61.369 73.3169 61.9648C73.2867 62.5605 73.1205 63.1414 72.8312 63.6627C72.6646 63.9398 72.4442 64.1806 72.1831 64.3708C71.922 64.5611 71.6253 64.6969 71.3109 64.7702C70.9964 64.8435 70.6704 64.8529 70.3522 64.7977C70.034 64.7425 69.7302 64.624 69.4586 64.449C68.8804 64.1241 68.3351 63.7438 67.8304 63.3132C67.4546 62.9351 67.0049 62.6389 66.5095 62.443C66.014 62.2472 65.4835 62.1559 64.9512 62.1751C64.4189 62.1942 63.8963 62.3233 63.4162 62.5542C62.936 62.7852 62.5087 63.113 62.1609 63.5171C59.6605 65.6722 58.265 65.9343 56.8694 64.4199C55.4739 62.9055 55.9681 61.1582 58.1487 58.9448C60.2014 57.1578 62.8145 56.148 65.5335 56.0908Z" fill="#F1AE1D"/>
<path d="M79.2858 33.3171C85.5774 33.2389 91.8128 34.5099 97.5735 37.0449C104.11 40.0457 109.766 44.6788 114 50.4995C119.727 58.0656 122.977 67.2209 123.304 76.7099C123.641 82.4156 122.716 88.1253 120.595 93.4314C118.474 98.7375 115.21 103.509 111.035 107.405C104.576 114.011 96.5853 118.914 87.7755 121.675C79.4012 124.046 70.4669 123.449 62.4809 119.986C56.5344 117.61 51.1114 114.087 46.5192 109.619C40.0348 103.426 35.8421 95.2116 34.6278 86.3204C31.9821 69.2545 36.9247 54.7223 50.5023 43.6848C58.5245 36.8475 68.7537 33.163 79.2858 33.3171V33.3171ZM40.181 82.651L48.3799 77.6419C48.7851 77.3163 49.2853 77.1323 49.8045 77.1177C50.3279 77.1177 51.2001 77.904 51.142 78.0787C50.9547 78.8682 50.5282 79.5803 49.9208 80.1173C46.8099 82.185 43.6117 84.1071 40.4427 85.9418L41.0823 87.8639C43.9897 86.3204 46.6355 84.7769 49.3975 83.2917C50.2988 82.7966 51.3746 82.3306 51.9851 83.5538C52.5957 84.7769 51.7816 85.3594 50.7931 85.8836C47.8856 87.4853 44.9782 89.1453 42.0708 90.8636L43.0012 93.0478C45.9086 91.2422 48.3799 89.5239 51.0547 87.9804C51.5781 87.6601 52.5375 87.9804 53.2935 88.1552C53.253 88.8169 53.1359 89.4717 52.9446 90.1064C52.7701 90.485 52.1886 90.6597 51.8107 90.8927L43.9316 96.1056L45.2399 98.2898C47.4205 96.6007 49.4266 94.9407 51.549 93.4846C52.5084 92.8148 53.7296 91.213 54.9507 92.873C56.1718 94.533 54.1657 95.1737 53.2935 95.7853C51.2001 97.5327 48.9614 99.1053 46.6936 100.794L48.1473 102.6C50.0662 100.911 51.7816 99.3383 53.5842 97.8239C54.5146 97.0667 55.5322 95.3776 56.8696 96.9211C58.207 98.4646 56.4044 99.28 55.5322 100.125C53.8168 101.755 51.956 103.27 50.1534 104.842L50.4151 105.512C51.0534 105.502 51.6842 105.374 52.2759 105.134C53.9331 103.998 55.474 102.716 57.044 101.464C57.8581 100.853 58.7303 100.387 59.5153 101.464C60.3003 102.542 59.6898 103.299 58.8176 103.969C57.1603 105.279 55.5322 106.59 53.6714 108.017L56.2881 109.822C57.9163 108.104 59.4572 106.532 60.969 104.901C61.6668 104.144 62.51 103.765 63.0915 104.697C63.2696 105.028 63.3628 105.398 63.3628 105.774C63.3628 106.151 63.2696 106.521 63.0915 106.852C61.8206 108.377 60.4717 109.835 59.0501 111.22C60.0677 112.531 60.8527 112.24 61.725 111.22C62.5972 110.201 64.3707 108.308 65.7954 107.085C66.0773 106.934 66.3918 106.856 66.7112 106.856C67.0306 106.856 67.3451 106.934 67.627 107.085C67.8042 107.33 67.9182 107.615 67.9588 107.915C67.9993 108.215 67.9653 108.52 67.8596 108.803C67.4958 109.443 67.0235 110.015 66.4641 110.492L63.5567 113.725C69.1046 116.359 75.283 117.369 81.3791 116.637C90.6739 115.102 99.2441 110.657 105.86 103.94C110.804 99.685 114.401 94.0779 116.21 87.8057C117.56 82.7369 117.859 77.4449 117.089 72.2559C116.319 67.0669 114.496 62.0908 111.733 57.6346C108.655 52.0254 104.126 47.3504 98.621 44.1013C93.1158 40.8522 86.8384 39.149 80.4488 39.1708C74.4699 39.0353 68.5365 40.2412 63.0832 42.7003C57.6299 45.1594 52.7949 48.8093 48.9323 53.3827C44.8048 58.0779 41.9691 63.7688 40.7043 69.8952C42.5651 68.9633 44.1641 68.177 45.7342 67.3324C46.6936 66.8374 47.6821 66.3714 48.3508 67.5363C49.0195 68.7012 48.1182 69.371 47.1879 69.8952C45.0655 71.031 42.914 72.0794 40.8788 73.3608C40.2101 73.7977 39.9193 74.8461 39.4251 75.6033L40.0647 76.011L47.246 71.73C48.2345 71.1184 49.3394 70.3612 50.1534 71.73C50.9675 73.0987 49.6592 73.6812 48.6997 74.2636C46.2284 75.778 43.8734 77.438 41.3149 78.6903C39.5123 79.6513 39.4832 80.8454 40.181 82.651Z" fill="#F1AE1D"/>
<path d="M91.4966 160C88.9679 159.975 86.4907 159.282 84.3152 157.991C79.4816 155.317 75.7368 151.03 73.7322 145.876C72.9054 144.109 71.9834 142.388 70.9702 140.721C70.3541 139.599 69.488 138.634 68.4392 137.902C67.3903 137.169 66.187 136.689 64.9227 136.498C63.2603 136.377 61.5911 136.608 60.0234 137.175C58.4556 137.742 57.0244 138.633 55.8225 139.789C54.1071 141.42 45.1232 149.341 36.6044 146.225C29.1905 143.313 30.2663 133.324 31.1094 125.286C31.4916 122.909 31.5989 120.495 31.4292 118.093C29.8883 115.181 25.6144 115.443 19.3634 115.967C13.1125 116.491 4.24484 117.248 1.9189 109.123C-1.42464 100.037 6.16373 94.5617 11.6878 90.6593C15.8745 87.747 18.5784 85.5337 18.1714 83.5533C18.1714 83.5533 18.1714 83.2912 18.1714 83.1748C17.7934 78.3113 14.0719 76.0979 9.79801 73.5643C5.5241 71.0306 0 67.7689 0 60.8085C0 51.2272 8.54782 50.3244 14.8278 49.6254C18.1441 49.6489 21.4064 48.7842 24.277 47.1209C25.3818 46.1307 24.8875 41.6167 24.5096 38.3841C24.1183 35.6843 23.9433 32.9575 23.9862 30.2297C24.0369 27.3693 24.6541 24.5475 25.802 21.9279C26.9499 19.3083 28.6057 16.943 30.6733 14.9694C31.8262 13.9698 33.1838 13.2354 34.6505 12.8178C36.1172 12.4002 37.6575 12.3095 39.163 12.5523C42.6712 13.3872 45.9937 14.8685 48.961 16.9207C51.2775 18.4957 53.8431 19.6673 56.5494 20.3863C60.1255 20.9687 62.3642 17.474 65.2716 11.6494C68.179 5.82491 72.3948 -1.86348 80.6809 0.437214C86.0306 1.89335 89.4032 6.61122 92.5432 11.1835C94.1136 13.6526 95.9892 15.9129 98.1255 17.9108C101.411 20.561 104.958 19.6582 110.424 17.9108C115.396 16.3673 121.065 14.62 127.025 17.241H127.345C134.032 21.1726 132.404 31.2199 130.95 40.1023C130.747 41.3546 130.572 42.6069 130.398 43.7718C130.193 45.294 130.484 46.8418 131.228 48.185C131.972 49.5282 133.129 50.5952 134.526 51.2272C147.959 57.5759 153.686 65.4682 151.564 74.6709C149.89 79.905 146.883 84.6123 142.842 88.3295C138.771 92.7852 135.253 96.6586 136.155 101.173C137.016 103.918 138.465 106.442 140.399 108.57C143.307 112.501 146.825 116.957 145.284 122.607C143.307 129.771 134.933 132.072 127.49 131.14L124.583 130.732C120.077 130.062 115.861 129.422 112.663 131.344C109.057 133.528 107.429 138.799 105.859 143.866C103.737 150.798 101.324 158.632 93.1247 159.68C92.5934 159.838 92.0482 159.946 91.4966 160V160ZM63.9633 130.324C64.5731 130.281 65.1852 130.281 65.7949 130.324C67.9574 130.62 70.0233 131.409 71.833 132.631C73.6427 133.853 75.148 135.475 76.2326 137.372C77.3753 139.25 78.4045 141.195 79.3145 143.197C80.778 147.235 83.6622 150.601 87.4262 152.661C88.8481 153.554 90.5236 153.953 92.1943 153.797C96.3229 153.273 97.8057 149.05 99.899 142.148C101.731 136.324 103.766 129.596 109.377 126.189C114.407 123.277 120.251 124.005 125.368 124.762L128.275 125.17C132.2 125.636 138.393 124.937 139.44 121.063C140.138 118.53 138.451 116.113 135.631 112.327C133.089 109.478 131.239 106.079 130.223 102.396C128.682 95.0277 133.741 89.3779 138.335 84.4561C141.625 81.4703 144.131 77.7198 145.633 73.5351C146.156 71.2927 147.726 64.478 131.91 57.0226C129.328 55.8345 127.198 53.8438 125.836 51.3464C124.474 48.8489 123.953 45.978 124.35 43.1602C124.525 41.9662 124.728 40.6848 124.932 39.3742C125.92 33.2294 127.287 24.8129 124.379 22.8908C120.542 21.2891 116.5 22.5413 112.197 23.881C106.615 25.5992 100.306 27.5504 94.3168 22.7452C91.7066 20.4146 89.4361 17.7285 87.5715 14.7656C84.8676 10.9214 82.3091 7.28104 79.0528 6.37824C75.7965 5.47544 74.052 8.18385 70.7376 14.5326C67.4231 20.8813 63.7307 27.8417 55.619 26.5894C52.1126 25.7047 48.7938 24.1954 45.821 22.1336C43.5077 20.5188 40.9436 19.2986 38.2326 18.5224C37.5782 18.418 36.9087 18.4633 36.2742 18.6549C35.6398 18.8466 35.0569 19.1796 34.5692 19.6291C31.7445 22.5075 30.1402 26.3685 30.0918 30.4045C30.0803 32.8295 30.2357 35.2524 30.557 37.656C31.1966 43.2767 31.8072 48.6353 28.2892 51.7223C24.7712 54.8093 19.8868 55.3335 15.4675 55.7121C8.08263 56.5275 6.07651 57.2264 6.10559 60.7794C6.10559 64.0994 8.57689 65.7303 12.9962 68.3513C17.4155 70.9723 23.5792 74.6709 24.306 82.5632C25.4109 88.3877 20.0612 92.3193 15.3512 95.6975C8.98393 100.241 6.16373 102.862 7.79189 107.172C7.80827 107.278 7.80827 107.386 7.79189 107.492C8.51875 110.404 11.1645 110.579 18.7238 109.939C25.1492 109.385 33.1155 108.715 36.6917 115.297C37.9419 117.598 37.5639 121.122 37.0696 125.985C36.4881 131.315 35.645 139.411 38.6396 140.546C42.8554 142.061 48.7284 138.013 51.5195 135.392C54.8835 132.195 59.3267 130.386 63.9633 130.324V130.324Z" fill="#F1AE1D"/>
</g>
<defs>
<clipPath id="clip0_1372_500">
<rect width="152" height="160" fill="white"/>
</clipPath>
</defs>
</svg>
