<svg width="491" height="75" viewBox="0 0 491 75" fill="none" xmlns="http://www.w3.org/2000/svg">
<g clip-path="url(#clip0_1383_577)">
<path d="M131.941 37.1599C131.941 48.2733 131.941 59.3832 131.941 70.4899C131.941 72.2599 131.871 74.0699 129.551 74.0399C127.231 74.0099 127.051 72.2299 127.051 70.4599C127.051 48.0799 127.051 25.6933 127.051 3.29993C127.051 1.57993 127.391 -0.0300755 129.521 -7.55184e-05C131.651 0.0299245 131.971 1.55993 131.961 3.32993C131.961 14.5966 131.961 25.8733 131.961 37.1599H131.941Z" fill="white"/>
<path d="M69.3704 36.63C69.3704 26.52 69.3704 16.4 69.3704 6.28998C69.3704 4.62998 69.7404 3.16997 71.6504 3.06997C73.7704 2.95997 74.2305 4.50998 74.2305 6.24998C74.2305 26.65 74.2305 47.0467 74.2305 67.44C74.2305 69.06 74.0604 70.87 71.9404 70.94C69.8204 71.01 69.3404 69.29 69.3704 67.47C69.3704 67.22 69.3704 66.97 69.3704 66.73V36.63V36.63Z" fill="white"/>
<path d="M80.9102 36.8598C80.9102 30.3198 80.9102 23.7798 80.9102 17.2498C80.9102 15.5698 81.0102 13.9598 83.2302 13.8898C85.4502 13.8198 85.8401 15.4798 85.8401 17.2698C85.8401 30.4165 85.8401 43.5698 85.8401 56.7298C85.8401 58.3898 85.6202 60.1298 83.5202 60.1598C81.4202 60.1898 80.9302 58.5698 80.9402 56.7098C80.9302 50.0898 80.9102 43.4698 80.9102 36.8598Z" fill="white"/>
<path d="M236.06 37.0102V47.9302C236.06 49.7502 235.64 51.3702 233.39 51.3102C231.14 51.2502 231.13 49.5602 231.14 47.9002C231.14 40.6202 231.14 33.3402 231.14 26.0602C231.14 24.1502 231.54 22.5802 233.71 22.6502C235.88 22.7202 236.07 24.3502 236.05 26.0802C236.05 29.7202 236.05 33.3602 236.05 37.0102H236.06Z" fill="white"/>
<path d="M27.9809 36.9102C27.9809 40.6402 27.9809 44.3702 27.9809 48.1002C27.9809 49.6402 27.7709 51.2902 25.7109 51.3002C23.6509 51.3102 23.1309 49.7702 23.1309 48.0502C23.1309 40.7569 23.1309 33.4669 23.1309 26.1802C23.1309 24.3902 23.6309 22.6502 25.8009 22.7302C27.9709 22.8102 28.0309 24.5402 28.0209 26.2302C28.0209 29.7902 28.0209 33.3502 28.0209 36.9102H27.9809Z" fill="white"/>
<path d="M392.91 36.9398C392.91 33.5598 392.91 30.1698 392.91 26.7898C392.91 25.2198 393.35 23.7898 395.03 23.6798C396.71 23.5698 397.73 24.8698 397.74 26.5798C397.8 33.5998 397.8 40.5998 397.74 47.5798C397.774 47.9147 397.737 48.2528 397.632 48.5727C397.527 48.8925 397.357 49.187 397.132 49.4373C396.907 49.6876 396.633 49.8883 396.326 50.0265C396.019 50.1647 395.687 50.2373 395.35 50.2398C393.51 50.3398 392.84 49.0498 392.8 47.5398C392.7 43.9898 392.8 40.4398 392.8 36.8898L392.91 36.9398Z" fill="white"/>
<path d="M178.19 37.36C178.19 40.51 178.19 43.66 178.19 46.8C178.19 48.51 177.5 49.55 175.79 49.64C174.08 49.73 173.36 48.45 173.35 47.07C173.27 40.28 173.29 33.49 173.35 26.7C173.332 26.3834 173.385 26.0668 173.506 25.7738C173.628 25.4808 173.813 25.2188 174.05 25.0074C174.286 24.796 174.567 24.6406 174.872 24.5528C175.176 24.4649 175.497 24.4469 175.81 24.5C176.147 24.5016 176.479 24.5747 176.786 24.7145C177.093 24.8542 177.366 25.0575 177.588 25.3109C177.81 25.5642 177.976 25.8618 178.075 26.1841C178.173 26.5063 178.202 26.8458 178.16 27.18C178.16 30.57 178.16 33.97 178.16 37.36H178.19Z" fill="white"/>
<path d="M189.7 37.1402V45.0902C189.7 46.6202 189.14 47.6802 187.44 47.7402C187.104 47.7836 186.763 47.7509 186.441 47.6445C186.119 47.5381 185.826 47.3607 185.582 47.1255C185.338 46.8902 185.15 46.6031 185.032 46.2854C184.914 45.9678 184.869 45.6276 184.9 45.2902C184.84 39.6702 184.84 34.0435 184.9 28.4102C184.886 28.1139 184.934 27.8179 185.042 27.5416C185.15 27.2653 185.315 27.015 185.526 26.8071C185.738 26.5993 185.991 26.4386 186.269 26.3357C186.548 26.2328 186.845 26.19 187.14 26.2102C187.454 26.1711 187.773 26.2003 188.074 26.2959C188.375 26.3916 188.652 26.5513 188.886 26.7641C189.12 26.9769 189.305 27.2378 189.428 27.5289C189.551 27.8199 189.61 28.1342 189.6 28.4502C189.65 31.3502 189.6 34.2402 189.6 37.1402H189.7Z" fill="white"/>
<path d="M62.7892 37.0902C62.7892 39.4902 62.7892 41.8902 62.7892 44.2902C62.7892 45.9702 62.3292 47.5702 60.1792 47.4702C58.1792 47.3802 57.8691 45.8802 57.8691 44.2702C57.8691 39.2702 57.8691 34.3402 57.8691 29.3702C57.8691 27.8702 58.3992 26.6702 60.0192 26.5302C61.6392 26.3902 62.6191 27.5802 62.6891 29.1402C62.7991 31.7902 62.6891 34.4402 62.6891 37.0902H62.7892Z" fill="white"/>
<path d="M224.47 37.2499C224.47 39.3999 224.47 41.5399 224.47 43.6899C224.521 44.0422 224.497 44.4012 224.401 44.7437C224.304 45.0863 224.137 45.4049 223.91 45.679C223.683 45.9531 223.401 46.1766 223.083 46.3352C222.764 46.4938 222.416 46.584 222.06 46.5999C220.28 46.7399 219.64 45.3899 219.62 43.8199C219.62 39.3599 219.62 34.8999 219.57 30.4399C219.57 28.7399 220.16 27.4399 222.08 27.4399C224 27.4399 224.48 28.8899 224.48 30.5599C224.48 32.7866 224.48 35.0166 224.48 37.2499H224.47Z" fill="white"/>
<path d="M386.16 37.0999C386.16 39.4199 386.16 41.7299 386.16 44.0999C386.16 45.7199 385.44 46.8899 383.71 46.9299C381.98 46.9699 381.28 45.6399 381.25 44.1099C381.19 39.4832 381.19 34.8532 381.25 30.2199C381.25 28.6399 381.72 27.0999 383.69 27.1099C385.66 27.1199 386.11 28.5599 386.12 30.1999C386.12 32.5199 386.12 34.8299 386.12 37.1499L386.16 37.0999Z" fill="white"/>
<path d="M108.86 36.9998V43.4398C108.86 45.0498 108.2 46.2898 106.49 46.3398C104.78 46.3898 104 45.1498 103.98 43.5598C103.98 39.1798 103.98 34.7998 103.98 30.4298C103.98 28.7398 104.89 27.6598 106.53 27.6998C108.17 27.7398 108.96 28.8798 108.93 30.5598C108.93 32.6998 108.93 34.8498 108.93 36.9998H108.86Z" fill="white"/>
<path d="M328.411 37.0101C328.411 38.5801 328.411 40.1501 328.411 41.7101C328.411 43.2701 327.691 44.3201 326.041 44.3301C324.391 44.3401 323.551 43.2601 323.551 41.6001C323.551 38.6001 323.551 35.5001 323.551 32.4501C323.551 30.8101 324.371 29.7001 326.051 29.6601C327.731 29.6201 328.311 30.8801 328.391 32.3101C328.471 33.7401 328.391 35.4401 328.391 37.0101H328.411Z" fill="white"/>
<path d="M39.4592 37.0099C39.4592 38.4099 39.4592 39.8099 39.4592 41.2099C39.4592 42.6099 38.6692 43.7699 37.0692 43.8099C35.4692 43.8499 34.8392 42.6799 34.7692 41.3799C34.6392 38.5099 34.6192 35.6199 34.7692 32.7399C34.7461 32.4048 34.7973 32.0688 34.9192 31.7558C35.0411 31.4428 35.2307 31.1606 35.4743 30.9294C35.7179 30.6982 36.0096 30.5237 36.3286 30.4183C36.6475 30.313 36.9858 30.2793 37.3192 30.3199C38.9492 30.3699 39.4192 31.4599 39.4792 32.8099C39.5392 34.1599 39.4792 35.6099 39.4792 37.0099H39.4592Z" fill="white"/>
<path d="M138.73 36.6301C138.73 35.1501 138.67 33.6301 138.73 32.1701C138.716 31.877 138.763 31.5841 138.869 31.3102C138.974 31.0363 139.135 30.7874 139.342 30.5794C139.549 30.3715 139.798 30.2089 140.071 30.1023C140.344 29.9957 140.637 29.9472 140.93 29.9601C141.241 29.911 141.56 29.9316 141.862 30.0203C142.164 30.109 142.443 30.2637 142.678 30.4732C142.914 30.6826 143.1 30.9417 143.223 31.2317C143.346 31.5216 143.403 31.8353 143.39 32.1501C143.5 35.2901 143.54 38.4201 143.48 41.5601C143.516 41.895 143.477 42.2338 143.365 42.5516C143.254 42.8694 143.072 43.1583 142.835 43.397C142.597 43.6357 142.309 43.8182 141.991 43.9312C141.674 44.0442 141.335 44.0848 141 44.0501C139.41 43.9701 138.72 42.8501 138.7 41.3401C138.68 39.8301 138.7 38.2001 138.7 36.6301H138.73Z" fill="white"/>
<path d="M351.42 36.9498C351.42 38.2598 351.52 39.5898 351.42 40.9498C351.428 41.2643 351.37 41.577 351.25 41.8677C351.129 42.1583 350.949 42.4205 350.721 42.6372C350.493 42.854 350.222 43.0205 349.926 43.126C349.629 43.2315 349.314 43.2737 349 43.2498C348.706 43.2525 348.414 43.1963 348.141 43.0846C347.869 42.9729 347.622 42.8078 347.414 42.5991C347.206 42.3904 347.042 42.1424 346.932 41.8694C346.821 41.5965 346.766 41.3042 346.77 41.0098C346.67 38.3798 346.67 35.7298 346.77 33.0998C346.745 32.7813 346.791 32.4611 346.906 32.1629C347.021 31.8646 347.201 31.5958 347.433 31.3762C347.665 31.1565 347.943 30.9917 348.247 30.8937C348.551 30.7957 348.874 30.767 349.19 30.8098C350.77 30.8798 351.35 31.8798 351.45 33.2398C351.55 34.5998 351.45 35.7098 351.45 36.9498H351.42Z" fill="white"/>
<path d="M247.55 36.8802C247.55 38.0402 247.63 39.2102 247.55 40.3602C247.566 40.6962 247.511 41.0319 247.389 41.3452C247.266 41.6585 247.079 41.9424 246.839 42.1784C246.6 42.4144 246.313 42.5971 245.998 42.7146C245.682 42.8321 245.346 42.8817 245.01 42.8602C243.44 42.8602 242.79 41.7902 242.73 40.4302C242.65 38.1102 242.66 35.7902 242.73 33.4302C242.711 33.1154 242.757 32.8 242.866 32.5041C242.975 32.2082 243.145 31.9382 243.364 31.7115C243.583 31.4847 243.847 31.3061 244.139 31.1871C244.431 31.0681 244.745 31.0113 245.06 31.0202C245.376 31.0038 245.693 31.0523 245.99 31.1628C246.286 31.2733 246.557 31.4434 246.786 31.6626C247.015 31.8819 247.196 32.1456 247.319 32.4375C247.442 32.7295 247.503 33.0435 247.5 33.3602C247.6 34.5102 247.5 35.6702 247.5 36.8302L247.55 36.8802Z" fill="white"/>
<path d="M254.141 37.2202C254.139 36.1515 254.192 35.0834 254.301 34.0202C254.333 33.7293 254.423 33.4477 254.566 33.1924C254.709 32.937 254.902 32.713 255.133 32.5339C255.365 32.3547 255.63 32.2239 255.913 32.1494C256.196 32.0749 256.491 32.0582 256.781 32.1002C257.056 32.0781 257.334 32.1134 257.595 32.204C257.857 32.2945 258.097 32.4383 258.3 32.6263C258.503 32.8143 258.664 33.0423 258.775 33.296C258.885 33.5497 258.942 33.8236 258.941 34.1002C259.051 35.9102 259.081 37.7202 259.061 39.5302C259.104 39.8632 259.071 40.2018 258.964 40.52C258.857 40.8382 258.678 41.1276 258.441 41.366C258.205 41.6044 257.917 41.7855 257.6 41.8955C257.282 42.0054 256.944 42.0412 256.611 42.0002C256.278 42.0287 255.943 41.982 255.63 41.8636C255.318 41.7452 255.036 41.5582 254.806 41.3163C254.575 41.0744 254.402 40.7838 254.299 40.466C254.196 40.1482 254.166 39.8113 254.211 39.4802C254.211 38.7302 254.211 37.9902 254.211 37.2502L254.141 37.2202Z" fill="white"/>
<path d="M466.97 37.0499C466.97 37.6199 466.97 38.1999 466.97 38.7799C466.97 40.4199 466.36 41.8499 464.49 41.7799C462.62 41.7099 462.15 40.2199 462.08 38.6299C462.02 37.4807 462.02 36.3292 462.08 35.1799C462.18 33.5299 462.8 32.2399 464.74 32.3199C466.68 32.3999 466.9 33.7999 466.97 35.3199C466.97 35.8899 466.97 36.4699 466.97 37.0499V37.0499Z" fill="white"/>
<path d="M120.369 37.6098C120.319 38.8498 120.959 41.1898 118.109 41.6098C116.299 41.9098 115.469 40.2898 115.509 36.9098C115.509 36.4998 115.509 36.0898 115.509 35.6698C115.509 33.8798 116.059 32.4598 118.109 32.4698C120.159 32.4798 120.389 34.0298 120.369 35.6398V37.6098Z" fill="white"/>
<path d="M439.05 36.81C438.998 36.1443 438.998 35.4757 439.05 34.81C439.068 34.1822 439.334 33.5872 439.789 33.1545C440.244 32.7218 440.852 32.4865 441.48 32.5C441.792 32.4753 442.106 32.5177 442.401 32.6242C442.696 32.7308 442.964 32.899 443.189 33.1177C443.413 33.3364 443.588 33.6005 443.702 33.8924C443.816 34.1842 443.867 34.4971 443.85 34.81C443.945 36.1211 443.965 37.4366 443.91 38.75C443.84 40.3 443.14 41.57 441.44 41.58C439.74 41.59 439.08 40.32 439 38.75C439 38.09 439 37.44 439 36.75L439.05 36.81Z" fill="white"/>
<path d="M305.43 36.81C305.43 39.47 304.43 40.92 302.73 40.71C300.39 40.44 300.21 38.64 300.29 36.83C300.37 35.18 300.47 33.18 302.66 33.17C304.85 33.16 305.48 34.81 305.43 36.81Z" fill="white"/>
<path d="M155.149 37.0799C155.149 39.7599 153.899 41.1799 152.019 40.6499C150.139 40.1199 150.149 38.3099 150.099 36.7999C150.049 35.2899 150.309 33.7399 152.099 33.1899C153.889 32.6399 155.169 34.1899 155.149 37.0799Z" fill="white"/>
<path d="M166.7 36.8602C166.732 37.596 166.689 38.3333 166.57 39.0602C166.471 39.4405 166.282 39.7913 166.019 40.0826C165.755 40.3739 165.425 40.5969 165.056 40.7326C164.688 40.8682 164.292 40.9125 163.902 40.8616C163.513 40.8107 163.141 40.6661 162.82 40.4402C161.19 39.2802 161.38 34.3802 163.08 33.3502C163.423 33.1163 163.829 32.9912 164.245 32.9912C164.66 32.9912 165.066 33.1163 165.41 33.3502C166.79 34.1802 166.72 35.5202 166.7 36.8602Z" fill="white"/>
<path d="M358.14 36.81C358 35.31 358.09 33.81 359.9 33.22C360.378 33.0159 360.917 33.0062 361.402 33.1929C361.888 33.3796 362.281 33.748 362.5 34.22C362.936 35.112 363.163 36.0919 363.163 37.085C363.163 38.078 362.936 39.0579 362.5 39.95C362.264 40.4067 361.861 40.755 361.375 40.9225C360.889 41.0901 360.357 41.0641 359.89 40.85C357.96 40.09 358.03 38.44 358.14 36.81Z" fill="white"/>
<path d="M51.1109 37.7C51.0747 38.1561 51.0146 38.6101 50.9309 39.06C50.6609 40.35 49.6709 40.72 48.5209 40.74C48.273 40.7691 48.0218 40.7485 47.7819 40.6795C47.542 40.6106 47.3183 40.4945 47.1237 40.3381C46.9292 40.1817 46.7677 39.9881 46.6488 39.7687C46.5298 39.5493 46.4558 39.3083 46.4309 39.06C46.2929 38.3345 46.2193 37.5984 46.2109 36.86C46.2109 35.01 46.5709 33.05 48.8409 33.18C51.1109 33.31 51.3409 35.23 51.1109 37.7Z" fill="white"/>
<path d="M265.789 37.1202C265.689 34.9702 265.949 33.2102 268.169 33.2002C270.389 33.1902 270.759 34.8802 270.669 36.7102C270.669 37.2802 270.669 37.8602 270.609 38.4302C270.619 38.7437 270.564 39.0558 270.448 39.3469C270.331 39.638 270.156 39.9018 269.932 40.1216C269.708 40.3415 269.442 40.5126 269.149 40.6243C268.855 40.7359 268.543 40.7856 268.229 40.7702C267.896 40.7906 267.562 40.7384 267.25 40.6172C266.939 40.496 266.658 40.3086 266.426 40.0681C266.194 39.8276 266.017 39.5396 265.907 39.224C265.797 38.9085 265.757 38.5728 265.789 38.2402C265.789 37.7502 265.789 37.2502 265.789 37.1202Z" fill="white"/>
<path d="M409.299 37.3399C409.509 39.0499 408.829 40.5399 406.749 40.5399C404.669 40.5399 404.359 38.9099 404.419 37.1999C404.419 35.8199 404.159 34.3099 405.819 33.5699C407.859 32.6599 409.299 34.1399 409.299 37.3399Z" fill="white"/>
<path d="M339.901 37.4301C339.811 38.4301 340.011 40.3301 337.541 40.3001C335.071 40.2701 335.121 38.5001 335.051 36.7901C334.981 35.0801 335.551 33.6601 337.361 33.6001C339.331 33.5301 340.021 34.9601 339.901 37.4301Z" fill="white"/>
<path d="M369.68 37.09C369.75 35.31 370.04 33.59 372.09 33.61C373.98 33.61 374.67 35.07 374.61 36.88C374.55 38.69 374.31 40.34 372.05 40.31C369.79 40.28 369.79 38.59 369.68 37.09Z" fill="white"/>
<path d="M293.7 37.3501C293.61 38.6301 293.38 40.1901 291.36 40.2001C289.34 40.2101 288.84 38.6301 288.84 36.9501C288.84 35.2701 289.2 33.8401 291.2 33.8301C293.2 33.8201 293.7 35.3501 293.7 37.3501Z" fill="white"/>
<path d="M16.4495 36.8901C16.4495 38.8901 15.6695 39.8901 13.9595 39.8301C12.2495 39.7701 11.5495 38.7701 11.5895 37.0801C11.6295 35.3901 12.2395 34.0801 14.0995 34.0801C15.9595 34.0801 16.4595 35.5501 16.4495 36.8901Z" fill="white"/>
<path d="M316.94 37C316.84 38.52 316.24 39.78 314.53 39.85C312.82 39.92 311.93 38.69 311.86 37C311.79 35.31 312.51 34.23 314.22 34.13C316.11 34.03 316.79 35.31 316.94 37Z" fill="white"/>
<path d="M201.289 37.0598C201.209 38.6498 200.779 39.8998 198.889 39.8898C196.889 39.8898 196.439 38.5098 196.449 36.8898C196.459 35.2698 196.999 34.0198 198.819 34.0498C200.639 34.0798 201.289 35.4098 201.289 37.0598Z" fill="white"/>
<path d="M282.15 36.26C282.24 38.71 281.64 39.84 279.82 39.91C278 39.98 277.3 38.85 277.28 37.24C277.26 35.63 277.8 34.13 279.67 34.05C279.981 34.0165 280.296 34.0485 280.594 34.1441C280.892 34.2396 281.167 34.3966 281.4 34.6048C281.634 34.813 281.821 35.0679 281.95 35.353C282.079 35.6381 282.147 35.947 282.15 36.26Z" fill="white"/>
<path d="M432.42 37.1802C432.24 38.8102 431.53 39.9002 429.77 39.8502C428.01 39.8002 427.43 38.5202 427.49 36.9602C427.55 35.4002 428.19 34.0902 429.93 34.1002C431.79 34.1202 432.29 35.6002 432.42 37.1802Z" fill="white"/>
<path d="M420.789 37.1501C420.816 37.4931 420.768 37.8378 420.65 38.1609C420.532 38.4839 420.345 38.7777 420.103 39.0224C419.862 39.2671 419.57 39.4569 419.248 39.579C418.927 39.7011 418.583 39.7527 418.239 39.7301C416.559 39.6701 415.889 38.4401 415.929 36.8101C415.969 35.1801 416.759 34.1701 418.289 34.2101C419.819 34.2501 420.849 35.3101 420.789 37.1501Z" fill="white"/>
<path d="M208.01 37.2C208.22 35.78 208.49 34.32 210.41 34.37C210.723 34.3427 211.039 34.3841 211.334 34.4914C211.63 34.5988 211.898 34.7693 212.121 34.9912C212.344 35.2131 212.516 35.481 212.624 35.7761C212.733 36.0713 212.776 36.3866 212.75 36.7C212.75 38.26 212.34 39.56 210.52 39.7C208.7 39.84 208.23 38.69 208.01 37.2Z" fill="white"/>
<path d="M455.44 36.9299C455.44 38.6199 454.55 39.6399 453.05 39.6399C452.714 39.6725 452.376 39.6305 452.059 39.5169C451.743 39.4033 451.455 39.2209 451.217 38.9828C450.979 38.7448 450.796 38.4569 450.683 38.14C450.569 37.8231 450.527 37.485 450.56 37.1499C450.63 35.5999 451.33 34.3999 453.11 34.3999C454.89 34.3999 455.32 35.5599 455.44 36.9299Z" fill="white"/>
<path d="M-0.000616185 36.8099C-0.0117595 36.4818 0.0468605 36.1551 0.17135 35.8513C0.29584 35.5476 0.483364 35.2737 0.721552 35.0478C0.959739 34.8219 1.24318 34.6491 1.55309 34.5409C1.86301 34.4326 2.19237 34.3914 2.5194 34.4199C2.85176 34.4077 3.18283 34.4674 3.48998 34.5949C3.79714 34.7224 4.07315 34.9147 4.29913 35.1588C4.5251 35.4028 4.69571 35.6927 4.79931 36.0087C4.90291 36.3248 4.93704 36.6594 4.89938 36.9899C4.94292 37.3422 4.90468 37.6998 4.78762 38.0349C4.67057 38.3701 4.47787 38.6737 4.22445 38.9223C3.97103 39.1709 3.6637 39.3577 3.32638 39.4683C2.98905 39.5789 2.63078 39.6102 2.27938 39.5599C0.789383 39.4899 0.00938381 38.4199 -0.000616185 36.8099Z" fill="white"/>
<path d="M478.64 36.9402C478.43 38.2802 477.88 39.3702 476.36 39.4002C476.028 39.4468 475.691 39.4228 475.369 39.3299C475.047 39.2371 474.749 39.0773 474.493 38.8612C474.237 38.645 474.03 38.3774 473.885 38.0756C473.739 37.7739 473.659 37.4449 473.65 37.1102C473.617 36.7768 473.656 36.4403 473.763 36.1228C473.87 35.8054 474.043 35.5142 474.271 35.2685C474.498 35.0228 474.775 34.8282 475.084 34.6975C475.392 34.5668 475.725 34.5029 476.06 34.5102C477.79 34.3402 478.28 35.5902 478.64 36.9402Z" fill="white"/>
<path d="M94.7905 39.4401C94.4548 39.4571 94.1196 39.3983 93.8098 39.2681C93.4999 39.1379 93.2233 38.9396 93.0005 38.688C92.7777 38.4363 92.6143 38.1378 92.5226 37.8145C92.4308 37.4911 92.413 37.1513 92.4705 36.8201C92.5305 35.4001 93.3105 34.4201 94.8005 34.5101C95.134 34.497 95.4665 34.5538 95.7767 34.677C96.0869 34.8001 96.3678 34.9869 96.6014 35.2252C96.8351 35.4636 97.0162 35.7482 97.1331 36.0608C97.2501 36.3734 97.3003 36.707 97.2805 37.0401C97.31 37.3706 97.2651 37.7034 97.149 38.0142C97.033 38.325 96.8488 38.6059 96.6099 38.8361C96.371 39.0663 96.0836 39.2401 95.7687 39.3446C95.4539 39.4492 95.1196 39.4818 94.7905 39.4401V39.4401Z" fill="white"/>
<path d="M490.011 37.1502C490.022 37.4593 489.97 37.7674 489.858 38.0559C489.747 38.3443 489.578 38.6072 489.362 38.8287C489.146 39.0502 488.888 39.2256 488.602 39.3445C488.317 39.4633 488.01 39.5231 487.701 39.5202C487.367 39.5339 487.034 39.4738 486.725 39.3443C486.417 39.2148 486.141 39.0191 485.917 38.771C485.692 38.5228 485.525 38.2284 485.428 37.9086C485.33 37.5888 485.304 37.2513 485.351 36.9202C485.315 36.6076 485.348 36.2908 485.449 35.9924C485.549 35.6941 485.714 35.4216 485.932 35.1943C486.149 34.967 486.414 34.7905 486.708 34.6775C487.002 34.5644 487.317 34.5176 487.631 34.5402C489.191 34.5402 490.001 35.5202 490.011 37.1502Z" fill="white"/>
</g>
<defs>
<clipPath id="clip0_1383_577">
<rect width="490.01" height="74.04" fill="white"/>
</clipPath>
</defs>
</svg>
