<svg width="255" height="27" viewBox="0 0 255 27" fill="none" xmlns="http://www.w3.org/2000/svg">
<path d="M202.043 0.59311C198.943 0.882985 196.783 3.34693 195.092 7.26025C194.153 9.43431 193.402 11.7533 192.556 13.9274C191.993 15.3768 191.335 16.8261 190.584 17.9856C189.363 19.8698 187.766 19.8698 186.545 17.9856C185.699 16.6812 185.136 15.0869 184.478 13.6375C183.351 11.0286 182.412 8.12987 181.191 5.66593C177.903 -1.00121 172.455 -1.00121 169.074 5.52099C167.947 7.69505 167.101 10.3039 166.068 12.7679C165.41 14.3622 164.753 16.1014 164.002 17.5508C162.593 20.1597 160.62 20.1597 159.211 17.4059C158.272 15.6666 157.614 13.6375 156.769 11.6084C155.736 9.28937 154.89 6.82543 153.763 4.65136C150.757 -0.566399 145.967 -0.85627 142.867 4.36149C141.552 6.53556 140.613 9.28937 139.486 11.8982C138.734 13.6375 138.077 15.6666 137.138 17.4059C135.635 20.3046 133.756 20.3046 132.253 17.4059C131.22 15.3768 130.469 13.0578 129.529 10.8837C128.496 8.56469 127.651 6.24568 126.43 4.21655C123.518 -0.421455 119.197 -0.566399 116.191 3.92667C114.97 5.81086 114.031 8.27481 112.998 10.4489C112.058 12.478 111.401 14.797 110.462 16.8261C108.771 20.4496 106.704 20.4496 105.014 16.9711C104.074 14.9419 103.323 12.7679 102.477 10.5938C101.726 8.85455 101.069 6.97037 100.223 5.37605C96.9356 -0.856275 91.4877 -0.856275 88.2002 5.37605C87.167 7.40518 86.3216 9.72418 85.4762 11.8982C84.7248 13.7824 84.0672 15.6666 83.1279 17.4059C81.6251 20.1597 79.7464 20.1597 78.2435 17.4059C77.3042 15.5217 76.5528 13.3476 75.7075 11.3185C74.6742 8.99949 73.7349 6.39062 72.5138 4.36149C69.5081 -0.421457 64.9995 -0.421457 61.9937 4.36149C60.7726 6.39062 59.8333 8.85455 58.8001 11.3185C57.9547 13.2027 57.3911 15.2318 56.5457 16.9711C54.855 20.4496 52.7886 20.5945 51.0979 16.9711C50.1586 15.0869 49.501 12.9128 48.6556 10.8837C47.7163 8.70962 46.9649 6.53555 45.8377 4.65136C42.5502 -0.711337 37.6659 -0.566395 34.6601 5.08618C33.4391 7.26025 32.5936 9.86913 31.5604 12.1881C30.809 13.9274 30.1514 15.8116 29.3061 17.5508C27.8971 20.3046 25.9246 20.3046 24.5157 17.5508C23.5764 15.6666 22.9189 13.4926 21.9796 11.6084C20.7585 8.85456 19.7252 5.95581 18.1284 3.6368C15.3105 -0.421457 11.0837 -0.276526 8.26576 4.07161C7.04467 5.9558 6.19935 8.27481 5.26005 10.4489C4.41468 12.478 3.66327 14.5071 2.8179 16.5363C2.16039 18.1306 1.31502 19.2901 0 19.58C0 21.899 0 24.218 0 26.537C1.8786 26.537 3.56931 25.5224 4.7904 23.4933C6.01149 21.4641 6.95083 19.2901 7.89013 17.116C8.82943 15.0869 9.4869 12.7679 10.4262 10.7388C12.2109 6.82543 14.3712 6.82543 16.1559 10.7388C17.0952 12.7679 17.7528 15.0869 18.6921 17.116C19.5374 19.1451 20.3827 21.1743 21.4159 22.9135C24.5156 27.9863 29.4001 27.9863 32.3119 22.7686C33.6269 20.4496 34.5662 17.6958 35.5994 15.2318C36.3509 13.4926 37.0083 11.6084 37.7598 10.0141C39.1687 7.26025 41.0473 7.26024 42.4563 9.86912C43.4895 11.7533 44.147 13.9274 45.0863 15.9565C46.0256 18.1306 46.871 20.5945 47.9981 22.4787C51.2857 28.2762 56.358 28.1313 59.5516 22.1888C60.5848 20.3046 61.3361 17.9856 62.2754 15.8116C63.1208 13.9274 63.7783 11.8983 64.6237 10.0141C66.2205 6.97037 68.0991 7.11531 69.602 10.159C70.5413 11.8983 71.1988 13.9274 71.9503 15.9565C72.7017 17.8407 73.4531 19.8698 74.3924 21.754C77.9618 28.5661 83.5976 28.4212 86.979 21.3192C88.1062 19.0002 88.9516 16.5363 89.8909 14.0723C90.3605 12.9128 90.8301 11.6084 91.3937 10.5938C93.0844 7.26024 95.151 7.26024 96.7478 10.5938C97.4992 12.1881 98.1567 14.0723 98.8142 15.6666C99.8474 17.9856 100.693 20.5945 101.914 22.7686C105.201 28.4212 110.274 28.2762 113.373 22.3338C114.594 20.0148 115.44 17.4059 116.473 14.9419C117.131 13.3476 117.788 11.6084 118.539 10.159C119.948 7.40518 121.827 7.40519 123.236 10.0141C123.987 11.3185 124.551 12.9128 125.208 14.5071C126.242 16.9711 127.087 19.7249 128.308 22.0439C131.596 28.5661 137.138 28.5661 140.519 22.0439C141.646 19.7249 142.586 17.116 143.619 14.5071C144.276 12.9128 144.934 11.1736 145.779 9.72418C147.094 7.55012 148.785 7.55011 150.1 9.86912C151.039 11.6084 151.791 13.6375 152.542 15.5217C153.669 18.5654 154.702 21.754 156.487 24.073C159.399 27.8414 163.438 27.9863 166.162 23.9281C167.477 21.899 168.51 19.435 169.543 16.9711C170.483 14.9419 171.14 12.6229 172.079 10.5938C173.676 7.26024 175.743 7.26024 177.434 10.5938C178.373 12.478 179.03 14.5071 179.876 16.5363C180.815 18.7103 181.566 20.8844 182.694 22.7686C186.075 28.4212 191.147 28.2762 194.247 22.1888C195.468 19.8698 196.313 17.2609 197.347 14.797C198.098 13.0578 198.756 11.1736 199.695 9.72418C200.165 8.85456 201.104 8.70962 201.761 8.12987C202.043 5.37605 202.043 3.05705 202.043 0.59311Z" fill="#F1AE1D"/>
<path d="M254.547 0.535492C251.47 0.825368 249.325 3.28931 247.647 7.20263C246.715 9.37669 245.969 11.6957 245.13 13.8698C244.571 15.3191 243.918 16.7685 243.172 17.928C241.96 19.8122 240.375 19.8122 239.163 17.928C238.324 16.6236 237.765 15.0293 237.112 13.5799C235.993 10.971 235.061 8.07226 233.849 5.60831C230.585 -1.05882 225.178 -1.05883 221.821 5.46337C220.703 7.63743 219.863 10.2463 218.838 12.7103C218.185 14.3046 217.533 16.0438 216.787 17.4932C215.388 20.1021 213.43 20.1021 212.032 17.3483C211.1 15.609 210.447 13.5799 209.608 11.5508C208.582 9.23176 207.743 6.76781 206.624 4.59374C203.641 -0.624016 198.886 -0.913887 195.809 4.30387C194.504 6.47794 193.572 9.23175 192.453 11.8406C191.707 13.5799 191.054 15.609 190.122 17.3483C188.63 20.247 186.765 20.247 185.274 17.3483C184.248 15.3191 183.502 13.0001 182.57 10.8261C181.544 8.50707 180.705 6.18807 179.493 4.15894C176.603 -0.479072 172.314 -0.624016 169.331 3.86905C168.119 5.75325 167.186 8.21719 166.161 10.3913C165.228 12.4204 164.576 14.7394 163.643 16.7685C161.965 20.392 159.914 20.392 158.236 16.9135C157.303 14.8843 156.558 12.7103 155.718 10.5362C154.973 8.79694 154.32 6.91275 153.481 5.31843C150.218 -0.913892 144.81 -0.913892 141.547 5.31843C140.521 7.34756 139.682 9.66657 138.843 11.8406C138.097 13.7248 137.445 15.609 136.512 17.3483C135.02 20.1021 133.156 20.1021 131.664 17.3483C130.732 15.4641 129.986 13.29 129.147 11.2609C128.121 8.94187 127.189 6.333 125.977 4.30387C122.993 -0.479074 118.518 -0.479074 115.535 4.30387C114.322 6.333 113.39 8.79694 112.365 11.2609C111.525 13.1451 110.966 15.1742 110.127 16.9135C108.449 20.392 106.398 20.5369 104.719 16.9135C103.787 15.0293 103.134 12.8552 102.295 10.8261C101.363 8.65201 100.617 6.47793 99.4982 4.59374C96.235 -0.768954 91.3869 -0.624012 88.4034 5.02856C87.1914 7.20263 86.3522 9.81151 85.3267 12.1305C84.5808 13.8698 83.9281 15.754 83.089 17.4932C81.6905 20.247 79.7326 20.247 78.3341 17.4932C77.4017 15.609 76.7492 13.435 75.8168 11.5508C74.6048 8.79694 73.5791 5.89819 71.9941 3.57918C69.1971 -0.479074 65.0016 -0.334143 62.2045 4.01399C60.9925 5.89818 60.1534 8.21719 59.2211 10.3913C58.382 12.4204 57.6361 14.4495 56.797 16.4786C56.1444 18.073 55.3053 19.2325 54 19.5223C54 21.8413 54 24.1603 54 26.4793C55.8647 26.4793 57.5429 25.4648 58.7549 23.4357C59.967 21.4065 60.8993 19.2325 61.8317 17.0584C62.764 15.0293 63.4166 12.7103 64.349 10.6811C66.1204 6.76782 68.2648 6.76782 70.0362 10.6811C70.9686 12.7103 71.6213 15.0293 72.5536 17.0584C73.3927 19.0875 74.2317 21.1166 75.2573 22.8559C78.334 27.9287 83.1823 27.9287 86.0726 22.711C87.3778 20.392 88.3102 17.6381 89.3358 15.1742C90.0816 13.435 90.7342 11.5508 91.4801 9.95645C92.8786 7.20263 94.7433 7.20262 96.1418 9.8115C97.1674 11.6957 97.82 13.8698 98.7524 15.8989C99.6847 18.073 100.524 20.5369 101.643 22.4211C104.906 28.2186 109.941 28.0737 113.11 22.1312C114.136 20.247 114.882 17.928 115.814 15.754C116.653 13.8698 117.306 11.8406 118.145 9.95645C119.73 6.91275 121.595 7.05769 123.086 10.1014C124.019 11.8406 124.671 13.8698 125.417 15.8989C126.163 17.7831 126.909 19.8122 127.841 21.6964C131.384 28.5085 136.978 28.3635 140.335 21.2616C141.454 18.9426 142.293 16.4786 143.225 14.0147C143.691 12.8552 144.157 11.5508 144.717 10.5362C146.395 7.20262 148.446 7.20262 150.031 10.5362C150.777 12.1305 151.43 14.0147 152.082 15.609C153.108 17.928 153.947 20.5369 155.159 22.711C158.422 28.3635 163.457 28.2186 166.534 22.2762C167.746 19.9572 168.585 17.3483 169.61 14.8843C170.263 13.29 170.916 11.5508 171.661 10.1014C173.06 7.34757 174.925 7.34757 176.323 9.95645C177.069 11.2609 177.628 12.8552 178.281 14.4495C179.307 16.9135 180.146 19.6673 181.358 21.9863C184.621 28.5085 190.122 28.5085 193.478 21.9863C194.597 19.6673 195.529 17.0584 196.555 14.4495C197.208 12.8552 197.86 11.1159 198.699 9.66657C200.005 7.4925 201.683 7.4925 202.988 9.8115C203.92 11.5508 204.666 13.5799 205.412 15.4641C206.531 18.5078 207.557 21.6964 209.328 24.0154C212.218 27.7838 216.227 27.9287 218.931 23.8705C220.237 21.8413 221.262 19.3774 222.288 16.9135C223.22 14.8843 223.873 12.5653 224.805 10.5362C226.39 7.20262 228.441 7.20262 230.119 10.5362C231.052 12.4204 231.704 14.4495 232.543 16.4786C233.476 18.6527 234.222 20.8268 235.34 22.711C238.697 28.3635 243.731 28.2186 246.808 22.1312C248.02 19.8122 248.859 17.2033 249.885 14.7394C250.631 13.0001 251.283 11.1159 252.216 9.66657C252.682 8.79694 253.614 8.652 254.267 8.07225C254.547 5.31843 254.547 2.99943 254.547 0.535492Z" fill="#F1AE1D"/>
</svg>
