<svg width="471" height="15" viewBox="0 0 471 15" fill="none" xmlns="http://www.w3.org/2000/svg">
<path d="M202.043 0.00955227C198.943 0.174509 196.783 1.57664 195.092 3.80356C194.153 5.04073 193.402 6.36039 192.556 7.59756C191.993 8.42235 191.335 9.24713 190.584 9.90696C189.363 10.9792 187.766 10.9792 186.545 9.90696C185.699 9.16465 185.136 8.25739 184.478 7.43261C183.351 5.948 182.412 4.29843 181.191 2.8963C177.903 -0.89771 172.455 -0.897715 169.074 2.81381C167.947 4.05099 167.101 5.5356 166.068 6.93773C165.41 7.845 164.753 8.83474 164.002 9.65952C162.593 11.1441 160.62 11.1441 159.211 9.57705C158.272 8.5873 157.614 7.43261 156.769 6.27791C155.736 4.95826 154.89 3.55612 153.763 2.31894C150.757 -0.650279 145.967 -0.815233 142.867 2.15399C141.552 3.39117 140.613 4.95825 139.486 6.44286C138.734 7.4326 138.077 8.5873 137.138 9.57705C135.635 11.2266 133.756 11.2266 132.253 9.57705C131.22 8.42235 130.469 7.10269 129.529 5.86552C128.496 4.54586 127.651 3.22621 126.43 2.07151C123.518 -0.567797 119.197 -0.650279 116.191 1.90655C114.97 2.97877 114.031 4.3809 112.998 5.61808C112.058 6.77278 111.401 8.09243 110.462 9.24713C108.771 11.3091 106.704 11.3091 105.014 9.32961C104.074 8.17491 103.323 6.93773 102.477 5.70056C101.726 4.71082 101.069 3.6386 100.223 2.73134C96.9356 -0.815236 91.4877 -0.815236 88.2002 2.73134C87.167 3.88603 86.3216 5.20569 85.4762 6.44286C84.7248 7.51508 84.0672 8.5873 83.1279 9.57705C81.6251 11.1441 79.7464 11.1441 78.2435 9.57705C77.3042 8.50483 76.5528 7.26765 75.7075 6.11295C74.6742 4.79329 73.7349 3.30869 72.5138 2.15399C69.5081 -0.567798 64.9995 -0.567798 61.9937 2.15399C60.7726 3.30869 59.8333 4.71082 58.8001 6.11295C57.9547 7.18517 57.3911 8.33987 56.5457 9.32961C54.855 11.3091 52.7886 11.3916 51.0979 9.32961C50.1586 8.25739 49.501 7.02022 48.6556 5.86552C47.7163 4.62834 46.9649 3.39116 45.8377 2.31894C42.5502 -0.732757 37.6659 -0.650276 34.6601 2.56638C33.4391 3.80356 32.5936 5.28817 31.5604 6.60782C30.809 7.59757 30.1514 8.66978 29.3061 9.65952C27.8971 11.2266 25.9246 11.2266 24.5157 9.65952C23.5764 8.5873 22.9189 7.35013 21.9796 6.27791C20.7585 4.71082 19.7252 3.06125 18.1284 1.7416C15.3105 -0.567798 11.0837 -0.485323 8.26576 1.98903C7.04467 3.06125 6.19935 4.3809 5.26005 5.61808C4.41468 6.77278 3.66327 7.92748 2.8179 9.08218C2.16039 9.98944 1.31502 10.6493 0 10.8142C0 12.1339 0 13.4535 0 14.7732C1.8786 14.7732 3.56931 14.1958 4.7904 13.0411C6.01149 11.8864 6.95083 10.6493 7.89013 9.41208C8.82943 8.25739 9.4869 6.93774 10.4262 5.78304C12.2109 3.55612 14.3712 3.55612 16.1559 5.78304C17.0952 6.93774 17.7528 8.25739 18.6921 9.41208C19.5374 10.5668 20.3827 11.7215 21.4159 12.7112C24.5156 15.598 29.4001 15.598 32.3119 12.6287C33.6269 11.3091 34.5662 9.742 35.5994 8.33987C36.3509 7.35013 37.0083 6.27791 37.7598 5.37065C39.1687 3.80356 41.0473 3.80355 42.4563 5.28817C43.4895 6.36038 44.147 7.59756 45.0863 8.75226C46.0256 9.98944 46.871 11.3916 47.9981 12.4638C51.2857 15.7629 56.358 15.6804 59.5516 12.2988C60.5848 11.2266 61.3361 9.90696 62.2754 8.66978C63.1208 7.59757 63.7783 6.44287 64.6237 5.37065C66.2205 3.6386 68.0991 3.72108 69.602 5.45313C70.5413 6.44287 71.1988 7.59756 71.9503 8.75226C72.7017 9.82448 73.4531 10.9792 74.3924 12.0514C77.9618 15.9279 83.5976 15.8454 86.979 11.804C88.1062 10.4843 88.9516 9.08217 89.8909 7.68004C90.3605 7.02021 90.8301 6.27791 91.3937 5.70056C93.0844 3.80355 95.151 3.80355 96.7478 5.70056C97.4992 6.60782 98.1567 7.68004 98.8142 8.5873C99.8474 9.90696 100.693 11.3916 101.914 12.6287C105.201 15.8454 110.274 15.7629 113.373 12.3813C114.594 11.0617 115.44 9.57704 116.473 8.17491C117.131 7.26765 117.788 6.27791 118.539 5.45313C119.948 3.88604 121.827 3.88604 123.236 5.37065C123.987 6.11295 124.551 7.02022 125.208 7.92748C126.242 9.32961 127.087 10.8967 128.308 12.2164C131.596 15.9279 137.138 15.9279 140.519 12.2164C141.646 10.8967 142.586 9.41209 143.619 7.92748C144.276 7.02022 144.934 6.03047 145.779 5.20569C147.094 3.96851 148.785 3.96851 150.1 5.28817C151.039 6.27791 151.791 7.4326 152.542 8.50482C153.669 10.2369 154.702 12.0514 156.487 13.3711C159.399 15.5155 163.438 15.598 166.162 13.2886C167.477 12.1339 168.51 10.7317 169.543 9.32961C170.483 8.17491 171.14 6.85525 172.079 5.70056C173.676 3.80355 175.743 3.80355 177.434 5.70056C178.373 6.77278 179.03 7.92748 179.876 9.08218C180.815 10.3194 181.566 11.5565 182.694 12.6287C186.075 15.8454 191.147 15.7629 194.247 12.2988C195.468 10.9792 196.313 9.49456 197.347 8.09243C198.098 7.10269 198.756 6.03047 199.695 5.20569C200.165 4.71082 201.104 4.62834 201.761 4.29843C202.043 2.73134 202.043 1.41169 202.043 0.00955227Z" fill="#F1AE1D"/>
<path d="M362.592 0.00855729C359.515 0.173514 357.37 1.57565 355.692 3.80257C354.76 5.03974 354.014 6.3594 353.175 7.59658C352.616 8.42136 351.963 9.24615 351.217 9.90598C350.005 10.9782 348.42 10.9782 347.208 9.90598C346.369 9.16367 345.809 8.25641 345.157 7.43162C344.038 5.94701 343.106 4.29744 341.894 2.8953C338.63 -0.898706 333.223 -0.898711 329.866 2.81282C328.748 4.05 327.908 5.53461 326.883 6.93675C326.23 7.84401 325.578 8.83375 324.832 9.65854C323.433 11.1432 321.475 11.1432 320.077 9.57606C319.144 8.58632 318.492 7.43162 317.653 6.27692C316.627 4.95727 315.788 3.55513 314.669 2.31795C311.686 -0.651274 306.931 -0.816229 303.854 2.153C302.549 3.39017 301.616 4.95726 300.498 6.44188C299.752 7.43162 299.099 8.58632 298.167 9.57606C296.675 11.2256 294.81 11.2256 293.319 9.57606C292.293 8.42136 291.547 7.10171 290.615 5.86453C289.589 4.54487 288.75 3.22522 287.538 2.07052C284.648 -0.568792 280.359 -0.651274 277.376 1.90556C276.163 2.97778 275.231 4.37991 274.206 5.61709C273.273 6.77179 272.621 8.09145 271.688 9.24615C270.01 11.3081 267.959 11.3081 266.281 9.32862C265.348 8.17393 264.602 6.93675 263.763 5.69957C263.017 4.70983 262.365 3.63761 261.526 2.73034C258.263 -0.816232 252.855 -0.816232 249.592 2.73034C248.566 3.88504 247.727 5.2047 246.888 6.44188C246.142 7.5141 245.489 8.58632 244.557 9.57606C243.065 11.1432 241.201 11.1432 239.709 9.57606C238.777 8.50384 238.031 7.26666 237.192 6.11196C236.166 4.79231 235.234 3.3077 234.022 2.153C231.038 -0.568793 226.563 -0.568793 223.579 2.153C222.367 3.3077 221.435 4.70983 220.409 6.11196C219.57 7.18418 219.011 8.33888 218.172 9.32862C216.494 11.3081 214.443 11.3906 212.764 9.32862C211.832 8.2564 211.179 7.01923 210.34 5.86453C209.408 4.62735 208.662 3.39017 207.543 2.31795C204.28 -0.733753 199.432 -0.651272 196.448 2.56539C195.236 3.80257 194.397 5.28718 193.372 6.60684C192.626 7.59658 191.973 8.6688 191.134 9.65854C189.735 11.2256 187.778 11.2256 186.379 9.65854C185.447 8.58632 184.794 7.34914 183.862 6.27692C182.65 4.70983 181.624 3.06026 180.039 1.7406C177.242 -0.568793 173.046 -0.486319 170.249 1.98804C169.037 3.06026 168.198 4.37991 167.266 5.61709C166.427 6.77179 165.681 7.92649 164.842 9.08119C164.189 9.98846 163.35 10.6483 162.045 10.8132C162.045 12.1329 162.045 13.4525 162.045 14.7722C163.91 14.7722 165.588 14.1949 166.8 13.0402C168.012 11.8855 168.944 10.6483 169.877 9.4111C170.809 8.2564 171.462 6.93675 172.394 5.78205C174.165 3.55513 176.31 3.55513 178.081 5.78205C179.013 6.93675 179.666 8.2564 180.599 9.4111C181.438 10.5658 182.277 11.7205 183.302 12.7102C186.379 15.597 191.227 15.597 194.117 12.6278C195.423 11.3081 196.355 9.74102 197.381 8.33889C198.127 7.34914 198.779 6.27692 199.525 5.36966C200.924 3.80257 202.788 3.80256 204.187 5.28718C205.212 6.3594 205.865 7.59658 206.797 8.75128C207.73 9.98845 208.569 11.3906 209.688 12.4628C212.951 15.762 217.985 15.6795 221.155 12.2978C222.181 11.2256 222.927 9.90598 223.859 8.6688C224.698 7.59658 225.351 6.44188 226.19 5.36966C227.775 3.63761 229.64 3.72009 231.131 5.45214C232.064 6.44188 232.716 7.59658 233.462 8.75128C234.208 9.8235 234.954 10.9782 235.886 12.0504C239.429 15.9269 245.023 15.8444 248.38 11.803C249.499 10.4833 250.338 9.08119 251.27 7.67905C251.736 7.01923 252.202 6.27692 252.762 5.69957C254.44 3.80256 256.491 3.80256 258.076 5.69957C258.822 6.60683 259.475 7.67905 260.127 8.58632C261.153 9.90597 261.992 11.3906 263.204 12.6278C266.467 15.8444 271.502 15.762 274.578 12.3803C275.791 11.0607 276.63 9.57606 277.655 8.17392C278.308 7.26666 278.96 6.27692 279.706 5.45214C281.105 3.88505 282.97 3.88505 284.368 5.36966C285.114 6.11197 285.673 7.01923 286.326 7.92649C287.352 9.32863 288.191 10.8957 289.403 12.2154C292.666 15.9269 298.167 15.9269 301.523 12.2154C302.642 10.8957 303.574 9.41111 304.6 7.92649C305.253 7.01923 305.905 6.02948 306.744 5.2047C308.05 3.96752 309.728 3.96752 311.033 5.28718C311.965 6.27692 312.711 7.43162 313.457 8.50384C314.576 10.2359 315.602 12.0504 317.373 13.3701C320.263 15.5145 324.272 15.597 326.976 13.2876C328.281 12.1329 329.307 10.7308 330.333 9.32862C331.265 8.17393 331.917 6.85427 332.85 5.69957C334.435 3.80256 336.486 3.80256 338.164 5.69957C339.097 6.77179 339.749 7.92649 340.588 9.08119C341.521 10.3184 342.267 11.5555 343.385 12.6278C346.742 15.8444 351.776 15.7619 354.853 12.2978C356.065 10.9782 356.904 9.49358 357.93 8.09145C358.676 7.1017 359.328 6.02948 360.261 5.2047C360.727 4.70983 361.659 4.62735 362.312 4.29744C362.592 2.73035 362.592 1.41069 362.592 0.00855729Z" fill="#F1AE1D"/>
<path d="M470.547 0.00172135C467.47 0.166678 465.325 1.56881 463.647 3.79573C462.715 5.03291 461.969 6.35256 461.13 7.58974C460.571 8.41453 459.918 9.23931 459.172 9.89914C457.96 10.9714 456.375 10.9714 455.163 9.89914C454.324 9.15684 453.765 8.24957 453.112 7.42479C451.993 5.94017 451.061 4.2906 449.849 2.88847C446.585 -0.905542 441.178 -0.905547 437.821 2.80599C436.703 4.04316 435.863 5.52778 434.838 6.92991C434.185 7.83717 433.533 8.82692 432.787 9.6517C431.388 11.1363 429.43 11.1363 428.032 9.56923C427.1 8.57948 426.447 7.42479 425.608 6.27009C424.582 4.95043 423.743 3.54829 422.624 2.31112C419.641 -0.65811 414.886 -0.823065 411.809 2.14616C410.504 3.38334 409.572 4.95043 408.453 6.43504C407.707 7.42478 407.054 8.57948 406.122 9.56923C404.63 11.2188 402.765 11.2188 401.274 9.56923C400.248 8.41453 399.502 7.09487 398.57 5.85769C397.544 4.53804 396.705 3.21838 395.493 2.06368C392.603 -0.575628 388.314 -0.65811 385.331 1.89872C384.119 2.97094 383.186 4.37308 382.161 5.61026C381.228 6.76495 380.576 8.08461 379.643 9.23931C377.965 11.3013 375.914 11.3013 374.236 9.32179C373.303 8.16709 372.558 6.92991 371.718 5.69273C370.973 4.70299 370.32 3.63077 369.481 2.72351C366.218 -0.823068 360.81 -0.823068 357.547 2.72351C356.521 3.87821 355.682 5.19786 354.843 6.43504C354.097 7.50726 353.445 8.57948 352.512 9.56923C351.02 11.1363 349.156 11.1363 347.664 9.56923C346.732 8.49701 345.986 7.25982 345.147 6.10513C344.121 4.78547 343.189 3.30086 341.977 2.14616C338.993 -0.575629 334.518 -0.575629 331.535 2.14616C330.322 3.30086 329.39 4.70299 328.365 6.10513C327.525 7.17735 326.966 8.33205 326.127 9.32179C324.449 11.3013 322.398 11.3838 320.719 9.32179C319.787 8.24957 319.134 7.01239 318.295 5.85769C317.363 4.62052 316.617 3.38334 315.498 2.31112C312.235 -0.740589 307.387 -0.658108 304.403 2.55855C303.191 3.79573 302.352 5.28035 301.327 6.6C300.581 7.58974 299.928 8.66196 299.089 9.6517C297.69 11.2188 295.733 11.2188 294.334 9.6517C293.402 8.57948 292.749 7.34231 291.817 6.27009C290.605 4.70299 289.579 3.05342 287.994 1.73377C285.197 -0.575629 281.002 -0.493155 278.205 1.9812C276.992 3.05342 276.153 4.37308 275.221 5.61026C274.382 6.76495 273.636 7.91966 272.797 9.07436C272.144 9.98162 271.305 10.6414 270 10.8064C270 12.1261 270 13.4457 270 14.7654C271.865 14.7654 273.543 14.188 274.755 13.0333C275.967 11.8786 276.899 10.6414 277.832 9.40427C278.764 8.24957 279.417 6.92992 280.349 5.77522C282.12 3.5483 284.265 3.5483 286.036 5.77522C286.969 6.92992 287.621 8.24957 288.554 9.40427C289.393 10.559 290.232 11.7137 291.257 12.7034C294.334 15.5902 299.182 15.5902 302.073 12.6209C303.378 11.3013 304.31 9.73418 305.336 8.33205C306.082 7.34231 306.734 6.27009 307.48 5.36282C308.879 3.79573 310.743 3.79573 312.142 5.28034C313.167 6.35256 313.82 7.58974 314.752 8.74444C315.685 9.98162 316.524 11.3838 317.643 12.456C320.906 15.7551 325.941 15.6726 329.11 12.291C330.136 11.2188 330.882 9.89914 331.814 8.66196C332.653 7.58974 333.306 6.43504 334.145 5.36282C335.73 3.63078 337.595 3.71325 339.086 5.4453C340.019 6.43504 340.671 7.58974 341.417 8.74444C342.163 9.81666 342.909 10.9714 343.841 12.0436C347.384 15.9201 352.978 15.8376 356.335 11.7961C357.454 10.4765 358.293 9.07435 359.225 7.67222C359.691 7.01239 360.157 6.27008 360.717 5.69273C362.395 3.79573 364.446 3.79573 366.031 5.69273C366.777 6.6 367.43 7.67222 368.082 8.57948C369.108 9.89914 369.947 11.3838 371.159 12.6209C374.422 15.8376 379.457 15.7551 382.534 12.3735C383.746 11.0538 384.585 9.56922 385.61 8.16709C386.263 7.25982 386.916 6.27009 387.661 5.4453C389.06 3.87821 390.925 3.87821 392.323 5.36282C393.069 6.10513 393.628 7.01239 394.281 7.91966C395.307 9.32179 396.146 10.8889 397.358 12.2085C400.621 15.9201 406.122 15.9201 409.478 12.2085C410.597 10.8889 411.529 9.40427 412.555 7.91966C413.208 7.01239 413.86 6.02265 414.699 5.19786C416.005 3.96069 417.683 3.96068 418.988 5.28034C419.92 6.27008 420.666 7.42478 421.412 8.497C422.531 10.2291 423.557 12.0436 425.328 13.3632C428.218 15.5077 432.227 15.5902 434.931 13.2808C436.237 12.1261 437.262 10.7239 438.288 9.32179C439.22 8.16709 439.873 6.84743 440.805 5.69273C442.39 3.79573 444.441 3.79573 446.119 5.69273C447.052 6.76495 447.704 7.91966 448.543 9.07436C449.476 10.3115 450.222 11.5487 451.34 12.6209C454.697 15.8376 459.731 15.7551 462.808 12.291C464.02 10.9714 464.859 9.48675 465.885 8.08461C466.631 7.09487 467.283 6.02265 468.216 5.19786C468.682 4.70299 469.614 4.62052 470.267 4.2906C470.547 2.72351 470.547 1.40386 470.547 0.00172135Z" fill="#F1AE1D"/>
</svg>
