<svg width="390" height="15" viewBox="0 0 390 15" fill="none" xmlns="http://www.w3.org/2000/svg">
<path d="M202.043 0.00955227C198.943 0.174509 196.783 1.57664 195.092 3.80356C194.153 5.04073 193.402 6.36039 192.556 7.59756C191.993 8.42235 191.335 9.24713 190.584 9.90696C189.363 10.9792 187.766 10.9792 186.545 9.90696C185.699 9.16465 185.136 8.25739 184.478 7.43261C183.351 5.948 182.412 4.29843 181.191 2.8963C177.903 -0.89771 172.455 -0.897715 169.074 2.81381C167.947 4.05099 167.101 5.5356 166.068 6.93773C165.41 7.845 164.753 8.83474 164.002 9.65952C162.593 11.1441 160.62 11.1441 159.211 9.57705C158.272 8.5873 157.614 7.43261 156.769 6.27791C155.736 4.95826 154.89 3.55612 153.763 2.31894C150.757 -0.650279 145.967 -0.815233 142.867 2.15399C141.552 3.39117 140.613 4.95825 139.486 6.44286C138.734 7.4326 138.077 8.5873 137.138 9.57705C135.635 11.2266 133.756 11.2266 132.253 9.57705C131.22 8.42235 130.469 7.10269 129.529 5.86552C128.496 4.54586 127.651 3.22621 126.43 2.07151C123.518 -0.567797 119.197 -0.650279 116.191 1.90655C114.97 2.97877 114.031 4.3809 112.998 5.61808C112.058 6.77278 111.401 8.09243 110.462 9.24713C108.771 11.3091 106.704 11.3091 105.014 9.32961C104.074 8.17491 103.323 6.93773 102.477 5.70056C101.726 4.71082 101.069 3.6386 100.223 2.73134C96.9356 -0.815236 91.4877 -0.815236 88.2002 2.73134C87.167 3.88603 86.3216 5.20569 85.4762 6.44286C84.7248 7.51508 84.0672 8.5873 83.1279 9.57705C81.6251 11.1441 79.7464 11.1441 78.2435 9.57705C77.3042 8.50483 76.5528 7.26765 75.7075 6.11295C74.6742 4.79329 73.7349 3.30869 72.5138 2.15399C69.5081 -0.567798 64.9995 -0.567798 61.9937 2.15399C60.7726 3.30869 59.8333 4.71082 58.8001 6.11295C57.9547 7.18517 57.3911 8.33987 56.5457 9.32961C54.855 11.3091 52.7886 11.3916 51.0979 9.32961C50.1586 8.25739 49.501 7.02022 48.6556 5.86552C47.7163 4.62834 46.9649 3.39116 45.8377 2.31894C42.5502 -0.732757 37.6659 -0.650276 34.6601 2.56638C33.4391 3.80356 32.5936 5.28817 31.5604 6.60782C30.809 7.59757 30.1514 8.66978 29.3061 9.65952C27.8971 11.2266 25.9246 11.2266 24.5157 9.65952C23.5764 8.5873 22.9189 7.35013 21.9796 6.27791C20.7585 4.71082 19.7252 3.06125 18.1284 1.7416C15.3105 -0.567798 11.0837 -0.485323 8.26576 1.98903C7.04467 3.06125 6.19935 4.3809 5.26005 5.61808C4.41468 6.77278 3.66327 7.92748 2.8179 9.08218C2.16039 9.98944 1.31502 10.6493 0 10.8142C0 12.1339 0 13.4535 0 14.7732C1.8786 14.7732 3.56931 14.1958 4.7904 13.0411C6.01149 11.8864 6.95083 10.6493 7.89013 9.41208C8.82943 8.25739 9.4869 6.93774 10.4262 5.78304C12.2109 3.55612 14.3712 3.55612 16.1559 5.78304C17.0952 6.93774 17.7528 8.25739 18.6921 9.41208C19.5374 10.5668 20.3827 11.7215 21.4159 12.7112C24.5156 15.598 29.4001 15.598 32.3119 12.6287C33.6269 11.3091 34.5662 9.742 35.5994 8.33987C36.3509 7.35013 37.0083 6.27791 37.7598 5.37065C39.1687 3.80356 41.0473 3.80355 42.4563 5.28817C43.4895 6.36038 44.147 7.59756 45.0863 8.75226C46.0256 9.98944 46.871 11.3916 47.9981 12.4638C51.2857 15.7629 56.358 15.6804 59.5516 12.2988C60.5848 11.2266 61.3361 9.90696 62.2754 8.66978C63.1208 7.59757 63.7783 6.44287 64.6237 5.37065C66.2205 3.6386 68.0991 3.72108 69.602 5.45313C70.5413 6.44287 71.1988 7.59756 71.9503 8.75226C72.7017 9.82448 73.4531 10.9792 74.3924 12.0514C77.9618 15.9279 83.5976 15.8454 86.979 11.804C88.1062 10.4843 88.9516 9.08217 89.8909 7.68004C90.3605 7.02021 90.8301 6.27791 91.3937 5.70056C93.0844 3.80355 95.151 3.80355 96.7478 5.70056C97.4992 6.60782 98.1567 7.68004 98.8142 8.5873C99.8474 9.90696 100.693 11.3916 101.914 12.6287C105.201 15.8454 110.274 15.7629 113.373 12.3813C114.594 11.0617 115.44 9.57704 116.473 8.17491C117.131 7.26765 117.788 6.27791 118.539 5.45313C119.948 3.88604 121.827 3.88604 123.236 5.37065C123.987 6.11295 124.551 7.02022 125.208 7.92748C126.242 9.32961 127.087 10.8967 128.308 12.2164C131.596 15.9279 137.138 15.9279 140.519 12.2164C141.646 10.8967 142.586 9.41209 143.619 7.92748C144.276 7.02022 144.934 6.03047 145.779 5.20569C147.094 3.96851 148.785 3.96851 150.1 5.28817C151.039 6.27791 151.791 7.4326 152.542 8.50482C153.669 10.2369 154.702 12.0514 156.487 13.3711C159.399 15.5155 163.438 15.598 166.162 13.2886C167.477 12.1339 168.51 10.7317 169.543 9.32961C170.483 8.17491 171.14 6.85525 172.079 5.70056C173.676 3.80355 175.743 3.80355 177.434 5.70056C178.373 6.77278 179.03 7.92748 179.876 9.08218C180.815 10.3194 181.566 11.5565 182.694 12.6287C186.075 15.8454 191.147 15.7629 194.247 12.2988C195.468 10.9792 196.313 9.49456 197.347 8.09243C198.098 7.10269 198.756 6.03047 199.695 5.20569C200.165 4.71082 201.104 4.62834 201.761 4.29843C202.043 2.73134 202.043 1.41169 202.043 0.00955227Z" fill="#F1AE1D"/>
<path d="M389.547 0.00172135C386.47 0.166678 384.325 1.56881 382.647 3.79573C381.715 5.03291 380.969 6.35256 380.13 7.58974C379.571 8.41453 378.918 9.23931 378.172 9.89914C376.96 10.9714 375.375 10.9714 374.163 9.89914C373.324 9.15684 372.765 8.24957 372.112 7.42479C370.993 5.94017 370.061 4.2906 368.849 2.88847C365.585 -0.905542 360.178 -0.905547 356.821 2.80599C355.703 4.04316 354.863 5.52778 353.838 6.92991C353.185 7.83717 352.533 8.82692 351.787 9.6517C350.388 11.1363 348.43 11.1363 347.032 9.56923C346.1 8.57948 345.447 7.42479 344.608 6.27009C343.582 4.95043 342.743 3.54829 341.624 2.31112C338.641 -0.65811 333.886 -0.823065 330.809 2.14616C329.504 3.38334 328.572 4.95043 327.453 6.43504C326.707 7.42478 326.054 8.57948 325.122 9.56923C323.63 11.2188 321.765 11.2188 320.274 9.56923C319.248 8.41453 318.502 7.09487 317.57 5.85769C316.544 4.53804 315.705 3.21838 314.493 2.06368C311.603 -0.575628 307.314 -0.65811 304.331 1.89872C303.119 2.97094 302.186 4.37308 301.161 5.61026C300.228 6.76495 299.576 8.08461 298.643 9.23931C296.965 11.3013 294.914 11.3013 293.236 9.32179C292.303 8.16709 291.558 6.92991 290.718 5.69273C289.973 4.70299 289.32 3.63077 288.481 2.72351C285.218 -0.823068 279.81 -0.823068 276.547 2.72351C275.521 3.87821 274.682 5.19786 273.843 6.43504C273.097 7.50726 272.445 8.57948 271.512 9.56923C270.02 11.1363 268.156 11.1363 266.664 9.56923C265.732 8.49701 264.986 7.25982 264.147 6.10513C263.121 4.78547 262.189 3.30086 260.977 2.14616C257.993 -0.575629 253.518 -0.575629 250.535 2.14616C249.322 3.30086 248.39 4.70299 247.365 6.10513C246.525 7.17735 245.966 8.33205 245.127 9.32179C243.449 11.3013 241.398 11.3838 239.719 9.32179C238.787 8.24957 238.134 7.01239 237.295 5.85769C236.363 4.62052 235.617 3.38334 234.498 2.31112C231.235 -0.740589 226.387 -0.658108 223.403 2.55855C222.191 3.79573 221.352 5.28035 220.327 6.6C219.581 7.58974 218.928 8.66196 218.089 9.6517C216.69 11.2188 214.733 11.2188 213.334 9.6517C212.402 8.57948 211.749 7.34231 210.817 6.27009C209.605 4.70299 208.579 3.05342 206.994 1.73377C204.197 -0.575629 200.002 -0.493155 197.205 1.9812C195.992 3.05342 195.153 4.37308 194.221 5.61026C193.382 6.76495 192.636 7.91966 191.797 9.07436C191.144 9.98162 190.305 10.6414 189 10.8064C189 12.1261 189 13.4457 189 14.7654C190.865 14.7654 192.543 14.188 193.755 13.0333C194.967 11.8786 195.899 10.6414 196.832 9.40427C197.764 8.24957 198.417 6.92992 199.349 5.77522C201.12 3.5483 203.265 3.5483 205.036 5.77522C205.969 6.92992 206.621 8.24957 207.554 9.40427C208.393 10.559 209.232 11.7137 210.257 12.7034C213.334 15.5902 218.182 15.5902 221.073 12.6209C222.378 11.3013 223.31 9.73418 224.336 8.33205C225.082 7.34231 225.734 6.27009 226.48 5.36282C227.879 3.79573 229.743 3.79573 231.142 5.28034C232.167 6.35256 232.82 7.58974 233.752 8.74444C234.685 9.98162 235.524 11.3838 236.643 12.456C239.906 15.7551 244.941 15.6726 248.11 12.291C249.136 11.2188 249.882 9.89914 250.814 8.66196C251.653 7.58974 252.306 6.43504 253.145 5.36282C254.73 3.63078 256.595 3.71325 258.086 5.4453C259.019 6.43504 259.671 7.58974 260.417 8.74444C261.163 9.81666 261.909 10.9714 262.841 12.0436C266.384 15.9201 271.978 15.8376 275.335 11.7961C276.454 10.4765 277.293 9.07435 278.225 7.67222C278.691 7.01239 279.157 6.27008 279.717 5.69273C281.395 3.79573 283.446 3.79573 285.031 5.69273C285.777 6.6 286.43 7.67222 287.082 8.57948C288.108 9.89914 288.947 11.3838 290.159 12.6209C293.422 15.8376 298.457 15.7551 301.534 12.3735C302.746 11.0538 303.585 9.56922 304.61 8.16709C305.263 7.25982 305.916 6.27009 306.661 5.4453C308.06 3.87821 309.925 3.87821 311.323 5.36282C312.069 6.10513 312.628 7.01239 313.281 7.91966C314.307 9.32179 315.146 10.8889 316.358 12.2085C319.621 15.9201 325.122 15.9201 328.478 12.2085C329.597 10.8889 330.529 9.40427 331.555 7.91966C332.208 7.01239 332.86 6.02265 333.699 5.19786C335.005 3.96069 336.683 3.96068 337.988 5.28034C338.92 6.27008 339.666 7.42478 340.412 8.497C341.531 10.2291 342.557 12.0436 344.328 13.3632C347.218 15.5077 351.227 15.5902 353.931 13.2808C355.237 12.1261 356.262 10.7239 357.288 9.32179C358.22 8.16709 358.873 6.84743 359.805 5.69273C361.39 3.79573 363.441 3.79573 365.119 5.69273C366.052 6.76495 366.704 7.91966 367.543 9.07436C368.476 10.3115 369.222 11.5487 370.34 12.6209C373.697 15.8376 378.731 15.7551 381.808 12.291C383.02 10.9714 383.859 9.48675 384.885 8.08461C385.631 7.09487 386.283 6.02265 387.216 5.19786C387.682 4.70299 388.614 4.62052 389.267 4.2906C389.547 2.72351 389.547 1.40386 389.547 0.00172135Z" fill="#F1AE1D"/>
</svg>
