<svg width="256" height="15" viewBox="0 0 256 15" fill="none" xmlns="http://www.w3.org/2000/svg">
<path d="M202.043 0.00955227C198.943 0.174509 196.783 1.57664 195.092 3.80356C194.153 5.04073 193.402 6.36039 192.556 7.59756C191.993 8.42235 191.335 9.24713 190.584 9.90696C189.363 10.9792 187.766 10.9792 186.545 9.90696C185.699 9.16465 185.136 8.25739 184.478 7.43261C183.351 5.948 182.412 4.29843 181.191 2.8963C177.903 -0.89771 172.455 -0.897715 169.074 2.81381C167.947 4.05099 167.101 5.5356 166.068 6.93773C165.41 7.845 164.753 8.83474 164.002 9.65952C162.593 11.1441 160.62 11.1441 159.211 9.57705C158.272 8.5873 157.614 7.43261 156.769 6.27791C155.736 4.95826 154.89 3.55612 153.763 2.31894C150.757 -0.650279 145.967 -0.815233 142.867 2.15399C141.552 3.39117 140.613 4.95825 139.486 6.44286C138.734 7.4326 138.077 8.5873 137.138 9.57705C135.635 11.2266 133.756 11.2266 132.253 9.57705C131.22 8.42235 130.469 7.10269 129.529 5.86552C128.496 4.54586 127.651 3.22621 126.43 2.07151C123.518 -0.567797 119.197 -0.650279 116.191 1.90655C114.97 2.97877 114.031 4.3809 112.998 5.61808C112.058 6.77278 111.401 8.09243 110.462 9.24713C108.771 11.3091 106.704 11.3091 105.014 9.32961C104.074 8.17491 103.323 6.93773 102.477 5.70056C101.726 4.71082 101.069 3.6386 100.223 2.73134C96.9356 -0.815236 91.4877 -0.815236 88.2002 2.73134C87.167 3.88603 86.3216 5.20569 85.4762 6.44286C84.7248 7.51508 84.0672 8.5873 83.1279 9.57705C81.6251 11.1441 79.7464 11.1441 78.2435 9.57705C77.3042 8.50483 76.5528 7.26765 75.7075 6.11295C74.6742 4.79329 73.7349 3.30869 72.5138 2.15399C69.5081 -0.567798 64.9995 -0.567798 61.9937 2.15399C60.7726 3.30869 59.8333 4.71082 58.8001 6.11295C57.9547 7.18517 57.3911 8.33987 56.5457 9.32961C54.855 11.3091 52.7886 11.3916 51.0979 9.32961C50.1586 8.25739 49.501 7.02022 48.6556 5.86552C47.7163 4.62834 46.9649 3.39116 45.8377 2.31894C42.5502 -0.732757 37.6659 -0.650276 34.6601 2.56638C33.4391 3.80356 32.5936 5.28817 31.5604 6.60782C30.809 7.59757 30.1514 8.66978 29.3061 9.65952C27.8971 11.2266 25.9246 11.2266 24.5157 9.65952C23.5764 8.5873 22.9189 7.35013 21.9796 6.27791C20.7585 4.71082 19.7252 3.06125 18.1284 1.7416C15.3105 -0.567798 11.0837 -0.485323 8.26576 1.98903C7.04467 3.06125 6.19935 4.3809 5.26005 5.61808C4.41468 6.77278 3.66327 7.92748 2.8179 9.08218C2.16039 9.98944 1.31502 10.6493 0 10.8142C0 12.1339 0 13.4535 0 14.7732C1.8786 14.7732 3.56931 14.1958 4.7904 13.0411C6.01149 11.8864 6.95083 10.6493 7.89013 9.41208C8.82943 8.25739 9.4869 6.93774 10.4262 5.78304C12.2109 3.55612 14.3712 3.55612 16.1559 5.78304C17.0952 6.93774 17.7528 8.25739 18.6921 9.41208C19.5374 10.5668 20.3827 11.7215 21.4159 12.7112C24.5156 15.598 29.4001 15.598 32.3119 12.6287C33.6269 11.3091 34.5662 9.742 35.5994 8.33987C36.3509 7.35013 37.0083 6.27791 37.7598 5.37065C39.1687 3.80356 41.0473 3.80355 42.4563 5.28817C43.4895 6.36038 44.147 7.59756 45.0863 8.75226C46.0256 9.98944 46.871 11.3916 47.9981 12.4638C51.2857 15.7629 56.358 15.6804 59.5516 12.2988C60.5848 11.2266 61.3361 9.90696 62.2754 8.66978C63.1208 7.59757 63.7783 6.44287 64.6237 5.37065C66.2205 3.6386 68.0991 3.72108 69.602 5.45313C70.5413 6.44287 71.1988 7.59756 71.9503 8.75226C72.7017 9.82448 73.4531 10.9792 74.3924 12.0514C77.9618 15.9279 83.5976 15.8454 86.979 11.804C88.1062 10.4843 88.9516 9.08217 89.8909 7.68004C90.3605 7.02021 90.8301 6.27791 91.3937 5.70056C93.0844 3.80355 95.151 3.80355 96.7478 5.70056C97.4992 6.60782 98.1567 7.68004 98.8142 8.5873C99.8474 9.90696 100.693 11.3916 101.914 12.6287C105.201 15.8454 110.274 15.7629 113.373 12.3813C114.594 11.0617 115.44 9.57704 116.473 8.17491C117.131 7.26765 117.788 6.27791 118.539 5.45313C119.948 3.88604 121.827 3.88604 123.236 5.37065C123.987 6.11295 124.551 7.02022 125.208 7.92748C126.242 9.32961 127.087 10.8967 128.308 12.2164C131.596 15.9279 137.138 15.9279 140.519 12.2164C141.646 10.8967 142.586 9.41209 143.619 7.92748C144.276 7.02022 144.934 6.03047 145.779 5.20569C147.094 3.96851 148.785 3.96851 150.1 5.28817C151.039 6.27791 151.791 7.4326 152.542 8.50482C153.669 10.2369 154.702 12.0514 156.487 13.3711C159.399 15.5155 163.438 15.598 166.162 13.2886C167.477 12.1339 168.51 10.7317 169.543 9.32961C170.483 8.17491 171.14 6.85525 172.079 5.70056C173.676 3.80355 175.743 3.80355 177.434 5.70056C178.373 6.77278 179.03 7.92748 179.876 9.08218C180.815 10.3194 181.566 11.5565 182.694 12.6287C186.075 15.8454 191.147 15.7629 194.247 12.2988C195.468 10.9792 196.313 9.49456 197.347 8.09243C198.098 7.10269 198.756 6.03047 199.695 5.20569C200.165 4.71082 201.104 4.62834 201.761 4.29843C202.043 2.73134 202.043 1.41169 202.043 0.00955227Z" fill="#F1AE1D"/>
<path d="M255.547 0.00172135C252.47 0.166678 250.325 1.56881 248.647 3.79573C247.715 5.03291 246.969 6.35256 246.13 7.58974C245.571 8.41453 244.918 9.23931 244.172 9.89914C242.96 10.9714 241.375 10.9714 240.163 9.89914C239.324 9.15684 238.765 8.24957 238.112 7.42479C236.993 5.94017 236.061 4.2906 234.849 2.88847C231.585 -0.905542 226.178 -0.905547 222.821 2.80599C221.703 4.04316 220.863 5.52778 219.838 6.92991C219.185 7.83717 218.533 8.82692 217.787 9.6517C216.388 11.1363 214.43 11.1363 213.032 9.56923C212.1 8.57948 211.447 7.42479 210.608 6.27009C209.582 4.95043 208.743 3.54829 207.624 2.31112C204.641 -0.65811 199.886 -0.823065 196.809 2.14616C195.504 3.38334 194.572 4.95043 193.453 6.43504C192.707 7.42478 192.054 8.57948 191.122 9.56923C189.63 11.2188 187.765 11.2188 186.274 9.56923C185.248 8.41453 184.502 7.09487 183.57 5.85769C182.544 4.53804 181.705 3.21838 180.493 2.06368C177.603 -0.575628 173.314 -0.65811 170.331 1.89872C169.119 2.97094 168.186 4.37308 167.161 5.61026C166.228 6.76495 165.576 8.08461 164.643 9.23931C162.965 11.3013 160.914 11.3013 159.236 9.32179C158.303 8.16709 157.558 6.92991 156.718 5.69273C155.973 4.70299 155.32 3.63077 154.481 2.72351C151.218 -0.823068 145.81 -0.823068 142.547 2.72351C141.521 3.87821 140.682 5.19786 139.843 6.43504C139.097 7.50726 138.445 8.57948 137.512 9.56923C136.02 11.1363 134.156 11.1363 132.664 9.56923C131.732 8.49701 130.986 7.25982 130.147 6.10513C129.121 4.78547 128.189 3.30086 126.977 2.14616C123.993 -0.575629 119.518 -0.575629 116.535 2.14616C115.322 3.30086 114.39 4.70299 113.365 6.10513C112.525 7.17735 111.966 8.33205 111.127 9.32179C109.449 11.3013 107.398 11.3838 105.719 9.32179C104.787 8.24957 104.134 7.01239 103.295 5.85769C102.363 4.62052 101.617 3.38334 100.498 2.31112C97.235 -0.740589 92.3869 -0.658108 89.4034 2.55855C88.1914 3.79573 87.3522 5.28035 86.3267 6.6C85.5808 7.58974 84.9281 8.66196 84.089 9.6517C82.6905 11.2188 80.7326 11.2188 79.3341 9.6517C78.4017 8.57948 77.7492 7.34231 76.8168 6.27009C75.6048 4.70299 74.5791 3.05342 72.9941 1.73377C70.1971 -0.575629 66.0016 -0.493155 63.2045 1.9812C61.9925 3.05342 61.1534 4.37308 60.2211 5.61026C59.382 6.76495 58.6361 7.91966 57.797 9.07436C57.1444 9.98162 56.3053 10.6414 55 10.8064C55 12.1261 55 13.4457 55 14.7654C56.8647 14.7654 58.5429 14.188 59.7549 13.0333C60.967 11.8786 61.8993 10.6414 62.8317 9.40427C63.764 8.24957 64.4166 6.92992 65.349 5.77522C67.1204 3.5483 69.2648 3.5483 71.0362 5.77522C71.9686 6.92992 72.6213 8.24957 73.5536 9.40427C74.3927 10.559 75.2317 11.7137 76.2573 12.7034C79.334 15.5902 84.1823 15.5902 87.0726 12.6209C88.3778 11.3013 89.3102 9.73418 90.3358 8.33205C91.0816 7.34231 91.7342 6.27009 92.4801 5.36282C93.8786 3.79573 95.7433 3.79573 97.1418 5.28034C98.1674 6.35256 98.82 7.58974 99.7524 8.74444C100.685 9.98162 101.524 11.3838 102.643 12.456C105.906 15.7551 110.941 15.6726 114.11 12.291C115.136 11.2188 115.882 9.89914 116.814 8.66196C117.653 7.58974 118.306 6.43504 119.145 5.36282C120.73 3.63078 122.595 3.71325 124.086 5.4453C125.019 6.43504 125.671 7.58974 126.417 8.74444C127.163 9.81666 127.909 10.9714 128.841 12.0436C132.384 15.9201 137.978 15.8376 141.335 11.7961C142.454 10.4765 143.293 9.07435 144.225 7.67222C144.691 7.01239 145.157 6.27008 145.717 5.69273C147.395 3.79573 149.446 3.79573 151.031 5.69273C151.777 6.6 152.43 7.67222 153.082 8.57948C154.108 9.89914 154.947 11.3838 156.159 12.6209C159.422 15.8376 164.457 15.7551 167.534 12.3735C168.746 11.0538 169.585 9.56922 170.61 8.16709C171.263 7.25982 171.916 6.27009 172.661 5.4453C174.06 3.87821 175.925 3.87821 177.323 5.36282C178.069 6.10513 178.628 7.01239 179.281 7.91966C180.307 9.32179 181.146 10.8889 182.358 12.2085C185.621 15.9201 191.122 15.9201 194.478 12.2085C195.597 10.8889 196.529 9.40427 197.555 7.91966C198.208 7.01239 198.86 6.02265 199.699 5.19786C201.005 3.96069 202.683 3.96068 203.988 5.28034C204.92 6.27008 205.666 7.42478 206.412 8.497C207.531 10.2291 208.557 12.0436 210.328 13.3632C213.218 15.5077 217.227 15.5902 219.931 13.2808C221.237 12.1261 222.262 10.7239 223.288 9.32179C224.22 8.16709 224.873 6.84743 225.805 5.69273C227.39 3.79573 229.441 3.79573 231.119 5.69273C232.052 6.76495 232.704 7.91966 233.543 9.07436C234.476 10.3115 235.222 11.5487 236.34 12.6209C239.697 15.8376 244.731 15.7551 247.808 12.291C249.02 10.9714 249.859 9.48675 250.885 8.08461C251.631 7.09487 252.283 6.02265 253.216 5.19786C253.682 4.70299 254.614 4.62052 255.267 4.2906C255.547 2.72351 255.547 1.40386 255.547 0.00172135Z" fill="#F1AE1D"/>
</svg>
